<svg width="31" height="31" viewBox="0 0 31 31" fill="none" xmlns="http://www.w3.org/2000/svg">
<ellipse cx="16.3836" cy="9" rx="8.69178" ry="9" fill="#0267B2"/>
<path d="M14.722 7.29V5.7H17.492V13H15.712V7.29H14.722Z" fill="white"/>
<path d="M1.864 22.384V28H0.496V22.384H1.864ZM4.67138 28.064C4.28204 28.064 3.93538 27.9973 3.63138 27.864C3.32738 27.7307 3.08738 27.5493 2.91138 27.32C2.73538 27.0853 2.63671 26.824 2.61538 26.536H3.96738C3.98338 26.6907 4.05538 26.816 4.18338 26.912C4.31138 27.008 4.46871 27.056 4.65538 27.056C4.82604 27.056 4.95671 27.024 5.04738 26.96C5.14338 26.8907 5.19138 26.8027 5.19138 26.696C5.19138 26.568 5.12471 26.4747 4.99138 26.416C4.85804 26.352 4.64204 26.2827 4.34338 26.208C4.02338 26.1333 3.75671 26.056 3.54338 25.976C3.33004 25.8907 3.14604 25.76 2.99138 25.584C2.83671 25.4027 2.75938 25.16 2.75938 24.856C2.75938 24.6 2.82871 24.368 2.96738 24.16C3.11138 23.9467 3.31938 23.7787 3.59138 23.656C3.86871 23.5333 4.19671 23.472 4.57538 23.472C5.13538 23.472 5.57538 23.6107 5.89538 23.888C6.22071 24.1653 6.40738 24.5333 6.45538 24.992H5.19138C5.17004 24.8373 5.10071 24.7147 4.98338 24.624C4.87138 24.5333 4.72204 24.488 4.53538 24.488C4.37538 24.488 4.25271 24.52 4.16738 24.584C4.08204 24.6427 4.03938 24.7253 4.03938 24.832C4.03938 24.96 4.10604 25.056 4.23938 25.12C4.37804 25.184 4.59138 25.248 4.87938 25.312C5.21004 25.3973 5.47938 25.4827 5.68738 25.568C5.89538 25.648 6.07671 25.7813 6.23138 25.968C6.39138 26.1493 6.47404 26.3947 6.47938 26.704C6.47938 26.9653 6.40471 27.2 6.25538 27.408C6.11138 27.6107 5.90071 27.7707 5.62338 27.888C5.35138 28.0053 5.03404 28.064 4.67138 28.064ZM8.00431 23.072C7.76431 23.072 7.56698 23.0027 7.41231 22.864C7.26298 22.72 7.18831 22.544 7.18831 22.336C7.18831 22.1227 7.26298 21.9467 7.41231 21.808C7.56698 21.664 7.76431 21.592 8.00431 21.592C8.23898 21.592 8.43098 21.664 8.58031 21.808C8.73498 21.9467 8.81231 22.1227 8.81231 22.336C8.81231 22.544 8.73498 22.72 8.58031 22.864C8.43098 23.0027 8.23898 23.072 8.00431 23.072ZM8.68431 23.536V28H7.31631V23.536H8.68431ZM13.611 24.672H12.875V28H11.507V24.672H11.011V23.536H11.507V23.408C11.507 22.8587 11.6643 22.4427 11.979 22.16C12.2937 21.872 12.755 21.728 13.363 21.728C13.4643 21.728 13.539 21.7307 13.587 21.736V22.896C13.3257 22.88 13.1417 22.9173 13.035 23.008C12.9283 23.0987 12.875 23.2613 12.875 23.496V23.536H13.611V24.672ZM16.2858 28.064C15.8485 28.064 15.4538 27.9707 15.1018 27.784C14.7551 27.5973 14.4805 27.3307 14.2778 26.984C14.0805 26.6373 13.9818 26.232 13.9818 25.768C13.9818 25.3093 14.0831 24.9067 14.2858 24.56C14.4885 24.208 14.7658 23.9387 15.1178 23.752C15.4698 23.5653 15.8645 23.472 16.3018 23.472C16.7391 23.472 17.1338 23.5653 17.4858 23.752C17.8378 23.9387 18.1151 24.208 18.3178 24.56C18.5205 24.9067 18.6218 25.3093 18.6218 25.768C18.6218 26.2267 18.5178 26.632 18.3098 26.984C18.1071 27.3307 17.8271 27.5973 17.4698 27.784C17.1178 27.9707 16.7231 28.064 16.2858 28.064ZM16.2858 26.88C16.5471 26.88 16.7685 26.784 16.9498 26.592C17.1365 26.4 17.2298 26.1253 17.2298 25.768C17.2298 25.4107 17.1391 25.136 16.9578 24.944C16.7818 24.752 16.5631 24.656 16.3018 24.656C16.0351 24.656 15.8138 24.752 15.6378 24.944C15.4618 25.1307 15.3738 25.4053 15.3738 25.768C15.3738 26.1253 15.4591 26.4 15.6298 26.592C15.8058 26.784 16.0245 26.88 16.2858 26.88ZM20.7156 24.28C20.8756 24.0347 21.0756 23.8427 21.3156 23.704C21.5556 23.56 21.8222 23.488 22.1156 23.488V24.936H21.7396C21.3982 24.936 21.1422 25.0107 20.9716 25.16C20.8009 25.304 20.7156 25.56 20.7156 25.928V28H19.3476V23.536H20.7156V24.28ZM28.4654 23.488C29.0201 23.488 29.4601 23.656 29.7854 23.992C30.1161 24.328 30.2814 24.7947 30.2814 25.392V28H28.9214V25.576C28.9214 25.288 28.8441 25.0667 28.6894 24.912C28.5401 24.752 28.3321 24.672 28.0654 24.672C27.7988 24.672 27.5881 24.752 27.4334 24.912C27.2841 25.0667 27.2094 25.288 27.2094 25.576V28H25.8494V25.576C25.8494 25.288 25.7721 25.0667 25.6174 24.912C25.4681 24.752 25.2601 24.672 24.9934 24.672C24.7268 24.672 24.5161 24.752 24.3614 24.912C24.2121 25.0667 24.1374 25.288 24.1374 25.576V28H22.7694V23.536H24.1374V24.096C24.2761 23.9093 24.4574 23.7627 24.6814 23.656C24.9054 23.544 25.1588 23.488 25.4414 23.488C25.7774 23.488 26.0761 23.56 26.3374 23.704C26.6041 23.848 26.8121 24.0533 26.9614 24.32C27.1161 24.0747 27.3268 23.8747 27.5934 23.72C27.8601 23.5653 28.1508 23.488 28.4654 23.488Z" fill="black"/>
</svg>
