<svg width="64" height="29" viewBox="0 0 64 29" fill="none" xmlns="http://www.w3.org/2000/svg">
<ellipse cx="31.3836" cy="9" rx="8.69178" ry="9" fill="#0267B2"/>
<path d="M28.39 11.63C28.6167 11.45 28.72 11.3667 28.7 11.38C29.3533 10.84 29.8667 10.3967 30.24 10.05C30.62 9.70333 30.94 9.34 31.2 8.96C31.46 8.58 31.59 8.21 31.59 7.85C31.59 7.57667 31.5267 7.36333 31.4 7.21C31.2733 7.05667 31.0833 6.98 30.83 6.98C30.5767 6.98 30.3767 7.07667 30.23 7.27C30.09 7.45667 30.02 7.72333 30.02 8.07H28.37C28.3833 7.50333 28.5033 7.03 28.73 6.65C28.9633 6.27 29.2667 5.99 29.64 5.81C30.02 5.63 30.44 5.54 30.9 5.54C31.6933 5.54 32.29 5.74333 32.69 6.15C33.0967 6.55667 33.3 7.08667 33.3 7.74C33.3 8.45333 33.0567 9.11667 32.57 9.73C32.0833 10.3367 31.4633 10.93 30.71 11.51H33.41V12.9H28.39V11.63Z" fill="white"/>
<path d="M1.84 20.384V23.744C1.84 24.08 1.92267 24.3387 2.088 24.52C2.25333 24.7013 2.496 24.792 2.816 24.792C3.136 24.792 3.38133 24.7013 3.552 24.52C3.72267 24.3387 3.808 24.08 3.808 23.744V20.384H5.176V23.736C5.176 24.2373 5.06933 24.6613 4.856 25.008C4.64267 25.3547 4.35467 25.616 3.992 25.792C3.63467 25.968 3.23467 26.056 2.792 26.056C2.34933 26.056 1.952 25.9707 1.6 25.8C1.25333 25.624 0.978667 25.3627 0.776 25.016C0.573333 24.664 0.472 24.2373 0.472 23.736V20.384H1.84ZM8.85663 21.488C9.37929 21.488 9.79529 21.6587 10.1046 22C10.4193 22.336 10.5766 22.8 10.5766 23.392V26H9.21663V23.576C9.21663 23.2773 9.13929 23.0453 8.98463 22.88C8.82996 22.7147 8.62196 22.632 8.36063 22.632C8.09929 22.632 7.89129 22.7147 7.73663 22.88C7.58196 23.0453 7.50463 23.2773 7.50463 23.576V26H6.13663V21.536H7.50463V22.128C7.64329 21.9307 7.82996 21.776 8.06463 21.664C8.29929 21.5467 8.56329 21.488 8.85663 21.488ZM13.2233 21.472C13.5379 21.472 13.8126 21.536 14.0473 21.664C14.2873 21.792 14.4713 21.96 14.5993 22.168V21.536H15.9673V25.992C15.9673 26.4027 15.8846 26.7733 15.7193 27.104C15.5593 27.44 15.3113 27.7067 14.9753 27.904C14.6446 28.1013 14.2313 28.2 13.7353 28.2C13.0739 28.2 12.5379 28.0427 12.1273 27.728C11.7166 27.4187 11.4819 26.9973 11.4233 26.464H12.7753C12.8179 26.6347 12.9193 26.768 13.0793 26.864C13.2393 26.9653 13.4366 27.016 13.6713 27.016C13.9539 27.016 14.1779 26.9333 14.3433 26.768C14.5139 26.608 14.5993 26.3493 14.5993 25.992V25.36C14.4659 25.568 14.2819 25.7387 14.0473 25.872C13.8126 26 13.5379 26.064 13.2233 26.064C12.8553 26.064 12.5219 25.9707 12.2233 25.784C11.9246 25.592 11.6873 25.3227 11.5113 24.976C11.3406 24.624 11.2553 24.2187 11.2553 23.76C11.2553 23.3013 11.3406 22.8987 11.5113 22.552C11.6873 22.2053 11.9246 21.9387 12.2233 21.752C12.5219 21.5653 12.8553 21.472 13.2233 21.472ZM14.5993 23.768C14.5993 23.4267 14.5033 23.1573 14.3113 22.96C14.1246 22.7627 13.8953 22.664 13.6233 22.664C13.3513 22.664 13.1193 22.7627 12.9273 22.96C12.7406 23.152 12.6473 23.4187 12.6473 23.76C12.6473 24.1013 12.7406 24.3733 12.9273 24.576C13.1193 24.7733 13.3513 24.872 13.6233 24.872C13.8953 24.872 14.1246 24.7733 14.3113 24.576C14.5033 24.3787 14.5993 24.1093 14.5993 23.768ZM18.6529 21.472C18.9676 21.472 19.2423 21.536 19.4769 21.664C19.7169 21.792 19.9009 21.96 20.0289 22.168V21.536H21.3969V25.992C21.3969 26.4027 21.3143 26.7733 21.1489 27.104C20.9889 27.44 20.7409 27.7067 20.4049 27.904C20.0743 28.1013 19.6609 28.2 19.1649 28.2C18.5036 28.2 17.9676 28.0427 17.5569 27.728C17.1463 27.4187 16.9116 26.9973 16.8529 26.464H18.2049C18.2476 26.6347 18.3489 26.768 18.5089 26.864C18.6689 26.9653 18.8663 27.016 19.1009 27.016C19.3836 27.016 19.6076 26.9333 19.7729 26.768C19.9436 26.608 20.0289 26.3493 20.0289 25.992V25.36C19.8956 25.568 19.7116 25.7387 19.4769 25.872C19.2423 26 18.9676 26.064 18.6529 26.064C18.2849 26.064 17.9516 25.9707 17.6529 25.784C17.3543 25.592 17.1169 25.3227 16.9409 24.976C16.7703 24.624 16.6849 24.2187 16.6849 23.76C16.6849 23.3013 16.7703 22.8987 16.9409 22.552C17.1169 22.2053 17.3543 21.9387 17.6529 21.752C17.9516 21.5653 18.2849 21.472 18.6529 21.472ZM20.0289 23.768C20.0289 23.4267 19.9329 23.1573 19.7409 22.96C19.5543 22.7627 19.3249 22.664 19.0529 22.664C18.7809 22.664 18.5489 22.7627 18.3569 22.96C18.1703 23.152 18.0769 23.4187 18.0769 23.76C18.0769 24.1013 18.1703 24.3733 18.3569 24.576C18.5489 24.7733 18.7809 24.872 19.0529 24.872C19.3249 24.872 19.5543 24.7733 19.7409 24.576C19.9329 24.3787 20.0289 24.1093 20.0289 23.768ZM25.1306 21.488C25.6426 21.488 26.0533 21.6587 26.3626 22C26.672 22.336 26.8266 22.8 26.8266 23.392V26H25.4666V23.576C25.4666 23.2773 25.3893 23.0453 25.2346 22.88C25.08 22.7147 24.872 22.632 24.6106 22.632C24.3493 22.632 24.1413 22.7147 23.9866 22.88C23.832 23.0453 23.7546 23.2773 23.7546 23.576V26H22.3866V20.08H23.7546V22.136C23.8933 21.9387 24.0826 21.7813 24.3226 21.664C24.5626 21.5467 24.832 21.488 25.1306 21.488ZM27.5053 23.76C27.5053 23.3013 27.5906 22.8987 27.7613 22.552C27.9373 22.2053 28.1746 21.9387 28.4733 21.752C28.7719 21.5653 29.1053 21.472 29.4733 21.472C29.7879 21.472 30.0626 21.536 30.2973 21.664C30.5373 21.792 30.7213 21.96 30.8493 22.168V21.536H32.2173V26H30.8493V25.368C30.7159 25.576 30.5293 25.744 30.2893 25.872C30.0546 26 29.7799 26.064 29.4653 26.064C29.1026 26.064 28.7719 25.9707 28.4733 25.784C28.1746 25.592 27.9373 25.3227 27.7613 24.976C27.5906 24.624 27.5053 24.2187 27.5053 23.76ZM30.8493 23.768C30.8493 23.4267 30.7533 23.1573 30.5613 22.96C30.3746 22.7627 30.1453 22.664 29.8733 22.664C29.6013 22.664 29.3693 22.7627 29.1773 22.96C28.9906 23.152 28.8973 23.4187 28.8973 23.76C28.8973 24.1013 28.9906 24.3733 29.1773 24.576C29.3693 24.7733 29.6013 24.872 29.8733 24.872C30.1453 24.872 30.3746 24.7733 30.5613 24.576C30.7533 24.3787 30.8493 24.1093 30.8493 23.768ZM38.3023 23.12C38.6276 23.1893 38.8889 23.352 39.0863 23.608C39.2836 23.8587 39.3823 24.1467 39.3823 24.472C39.3823 24.9413 39.2169 25.3147 38.8863 25.592C38.5609 25.864 38.1049 26 37.5183 26H34.9023V20.384H37.4303C38.0009 20.384 38.4463 20.5147 38.7663 20.776C39.0916 21.0373 39.2543 21.392 39.2543 21.84C39.2543 22.1707 39.1663 22.4453 38.9903 22.664C38.8196 22.8827 38.5903 23.0347 38.3023 23.12ZM36.2703 22.656H37.1663C37.3903 22.656 37.5609 22.608 37.6783 22.512C37.8009 22.4107 37.8623 22.264 37.8623 22.072C37.8623 21.88 37.8009 21.7333 37.6783 21.632C37.5609 21.5307 37.3903 21.48 37.1663 21.48H36.2703V22.656ZM37.2783 24.896C37.5076 24.896 37.6836 24.8453 37.8063 24.744C37.9343 24.6373 37.9983 24.4853 37.9983 24.288C37.9983 24.0907 37.9316 23.936 37.7983 23.824C37.6703 23.712 37.4916 23.656 37.2623 23.656H36.2703V24.896H37.2783ZM44.3837 23.696C44.3837 23.824 44.3757 23.9573 44.3597 24.096H41.2637C41.285 24.3733 41.373 24.5867 41.5277 24.736C41.6877 24.88 41.8824 24.952 42.1117 24.952C42.453 24.952 42.6904 24.808 42.8237 24.52H44.2797C44.205 24.8133 44.069 25.0773 43.8717 25.312C43.6797 25.5467 43.437 25.7307 43.1437 25.864C42.8504 25.9973 42.5224 26.064 42.1597 26.064C41.7224 26.064 41.333 25.9707 40.9917 25.784C40.6504 25.5973 40.3837 25.3307 40.1917 24.984C39.9997 24.6373 39.9037 24.232 39.9037 23.768C39.9037 23.304 39.997 22.8987 40.1837 22.552C40.3757 22.2053 40.6424 21.9387 40.9837 21.752C41.325 21.5653 41.717 21.472 42.1597 21.472C42.5917 21.472 42.9757 21.5627 43.3117 21.744C43.6477 21.9253 43.909 22.184 44.0957 22.52C44.2877 22.856 44.3837 23.248 44.3837 23.696ZM42.9837 23.336C42.9837 23.1013 42.9037 22.9147 42.7437 22.776C42.5837 22.6373 42.3837 22.568 42.1437 22.568C41.9144 22.568 41.7197 22.6347 41.5597 22.768C41.405 22.9013 41.309 23.0907 41.2717 23.336H42.9837ZM46.4734 22.28C46.6334 22.0347 46.8334 21.8427 47.0734 21.704C47.3134 21.56 47.58 21.488 47.8734 21.488V22.936H47.4974C47.156 22.936 46.9 23.0107 46.7294 23.16C46.5587 23.304 46.4734 23.56 46.4734 23.928V26H45.1054V21.536H46.4734V22.28ZM51.2553 26L49.8953 24.128V26H48.5273V20.08H49.8953V23.352L51.2473 21.536H52.9353L51.0793 23.776L52.9513 26H51.2553ZM53.2006 23.76C53.2006 23.3013 53.2859 22.8987 53.4566 22.552C53.6326 22.2053 53.8699 21.9387 54.1686 21.752C54.4672 21.5653 54.8006 21.472 55.1686 21.472C55.4832 21.472 55.7579 21.536 55.9926 21.664C56.2326 21.792 56.4166 21.96 56.5446 22.168V21.536H57.9126V26H56.5446V25.368C56.4112 25.576 56.2246 25.744 55.9846 25.872C55.7499 26 55.4752 26.064 55.1606 26.064C54.7979 26.064 54.4672 25.9707 54.1686 25.784C53.8699 25.592 53.6326 25.3227 53.4566 24.976C53.2859 24.624 53.2006 24.2187 53.2006 23.76ZM56.5446 23.768C56.5446 23.4267 56.4486 23.1573 56.2566 22.96C56.0699 22.7627 55.8406 22.664 55.5686 22.664C55.2966 22.664 55.0646 22.7627 54.8726 22.96C54.6859 23.152 54.5926 23.4187 54.5926 23.76C54.5926 24.1013 54.6859 24.3733 54.8726 24.576C55.0646 24.7733 55.2966 24.872 55.5686 24.872C55.8406 24.872 56.0699 24.7733 56.2566 24.576C56.4486 24.3787 56.5446 24.1093 56.5446 23.768ZM60.7183 26.064C60.3289 26.064 59.9823 25.9973 59.6783 25.864C59.3743 25.7307 59.1343 25.5493 58.9583 25.32C58.7823 25.0853 58.6836 24.824 58.6623 24.536H60.0143C60.0303 24.6907 60.1023 24.816 60.2303 24.912C60.3583 25.008 60.5156 25.056 60.7023 25.056C60.8729 25.056 61.0036 25.024 61.0943 24.96C61.1903 24.8907 61.2383 24.8027 61.2383 24.696C61.2383 24.568 61.1716 24.4747 61.0383 24.416C60.9049 24.352 60.6889 24.2827 60.3903 24.208C60.0703 24.1333 59.8036 24.056 59.5903 23.976C59.3769 23.8907 59.1929 23.76 59.0383 23.584C58.8836 23.4027 58.8063 23.16 58.8063 22.856C58.8063 22.6 58.8756 22.368 59.0143 22.16C59.1583 21.9467 59.3663 21.7787 59.6383 21.656C59.9156 21.5333 60.2436 21.472 60.6223 21.472C61.1823 21.472 61.6223 21.6107 61.9423 21.888C62.2676 22.1653 62.4543 22.5333 62.5023 22.992H61.2383C61.2169 22.8373 61.1476 22.7147 61.0303 22.624C60.9183 22.5333 60.7689 22.488 60.5823 22.488C60.4223 22.488 60.2996 22.52 60.2143 22.584C60.1289 22.6427 60.0863 22.7253 60.0863 22.832C60.0863 22.96 60.1529 23.056 60.2863 23.12C60.4249 23.184 60.6383 23.248 60.9263 23.312C61.2569 23.3973 61.5263 23.4827 61.7343 23.568C61.9423 23.648 62.1236 23.7813 62.2783 23.968C62.4383 24.1493 62.5209 24.3947 62.5263 24.704C62.5263 24.9653 62.4516 25.2 62.3023 25.408C62.1583 25.6107 61.9476 25.7707 61.6703 25.888C61.3983 26.0053 61.0809 26.064 60.7183 26.064Z" fill="black"/>
</svg>
