<svg width="46" height="41" viewBox="0 0 46 41" fill="none" xmlns="http://www.w3.org/2000/svg">
<ellipse cx="23.3836" cy="9" rx="8.69178" ry="9" fill="#0267B2"/>
<path d="M20.51 7.76C20.5367 7.04667 20.77 6.49667 21.21 6.11C21.65 5.72333 22.2467 5.53 23 5.53C23.5 5.53 23.9267 5.61667 24.28 5.79C24.64 5.96333 24.91 6.2 25.09 6.5C25.2767 6.8 25.37 7.13667 25.37 7.51C25.37 7.95 25.26 8.31 25.04 8.59C24.82 8.86333 24.5633 9.05 24.27 9.15V9.19C24.65 9.31667 24.95 9.52667 25.17 9.82C25.39 10.1133 25.5 10.49 25.5 10.95C25.5 11.3633 25.4033 11.73 25.21 12.05C25.0233 12.3633 24.7467 12.61 24.38 12.79C24.02 12.97 23.59 13.06 23.09 13.06C22.29 13.06 21.65 12.8633 21.17 12.47C20.6967 12.0767 20.4467 11.4833 20.42 10.69H22.08C22.0867 10.9833 22.17 11.2167 22.33 11.39C22.49 11.5567 22.7233 11.64 23.03 11.64C23.29 11.64 23.49 11.5667 23.63 11.42C23.7767 11.2667 23.85 11.0667 23.85 10.82C23.85 10.5 23.7467 10.27 23.54 10.13C23.34 9.98333 23.0167 9.91 22.57 9.91H22.25V8.52H22.57C22.91 8.52 23.1833 8.46333 23.39 8.35C23.6033 8.23 23.71 8.02 23.71 7.72C23.71 7.48 23.6433 7.29333 23.51 7.16C23.3767 7.02667 23.1933 6.96 22.96 6.96C22.7067 6.96 22.5167 7.03667 22.39 7.19C22.27 7.34333 22.2 7.53333 22.18 7.76H20.51Z" fill="white"/>
<path d="M5.40881 22.192C5.40881 22.5173 5.33415 22.816 5.18481 23.088C5.03548 23.3547 4.80615 23.5707 4.49681 23.736C4.18748 23.9013 3.80348 23.984 3.34481 23.984H2.49681V26H1.12881V20.384H3.34481C3.79281 20.384 4.17148 20.4613 4.48081 20.616C4.79015 20.7707 5.02215 20.984 5.17681 21.256C5.33148 21.528 5.40881 21.84 5.40881 22.192ZM3.24081 22.896C3.50215 22.896 3.69681 22.8347 3.82481 22.712C3.95281 22.5893 4.01681 22.416 4.01681 22.192C4.01681 21.968 3.95281 21.7947 3.82481 21.672C3.69681 21.5493 3.50215 21.488 3.24081 21.488H2.49681V22.896H3.24081ZM10.329 23.696C10.329 23.824 10.321 23.9573 10.305 24.096H7.209C7.23033 24.3733 7.31833 24.5867 7.473 24.736C7.633 24.88 7.82767 24.952 8.057 24.952C8.39833 24.952 8.63567 24.808 8.769 24.52H10.225C10.1503 24.8133 10.0143 25.0773 9.817 25.312C9.625 25.5467 9.38233 25.7307 9.089 25.864C8.79567 25.9973 8.46767 26.064 8.105 26.064C7.66767 26.064 7.27833 25.9707 6.937 25.784C6.59567 25.5973 6.329 25.3307 6.137 24.984C5.945 24.6373 5.849 24.232 5.849 23.768C5.849 23.304 5.94233 22.8987 6.129 22.552C6.321 22.2053 6.58767 21.9387 6.929 21.752C7.27033 21.5653 7.66233 21.472 8.105 21.472C8.537 21.472 8.921 21.5627 9.257 21.744C9.593 21.9253 9.85433 22.184 10.041 22.52C10.233 22.856 10.329 23.248 10.329 23.696ZM8.929 23.336C8.929 23.1013 8.849 22.9147 8.689 22.776C8.529 22.6373 8.329 22.568 8.089 22.568C7.85967 22.568 7.665 22.6347 7.505 22.768C7.35033 22.9013 7.25433 23.0907 7.217 23.336H8.929ZM13.7707 21.488C14.2934 21.488 14.7094 21.6587 15.0187 22C15.3334 22.336 15.4907 22.8 15.4907 23.392V26H14.1307V23.576C14.1307 23.2773 14.0534 23.0453 13.8987 22.88C13.744 22.7147 13.536 22.632 13.2747 22.632C13.0134 22.632 12.8054 22.7147 12.6507 22.88C12.496 23.0453 12.4187 23.2773 12.4187 23.576V26H11.0507V21.536H12.4187V22.128C12.5574 21.9307 12.744 21.776 12.9787 21.664C13.2134 21.5467 13.4774 21.488 13.7707 21.488ZM18.1373 21.472C18.452 21.472 18.7266 21.536 18.9613 21.664C19.2013 21.792 19.3853 21.96 19.5133 22.168V21.536H20.8813V25.992C20.8813 26.4027 20.7986 26.7733 20.6333 27.104C20.4733 27.44 20.2253 27.7067 19.8893 27.904C19.5586 28.1013 19.1453 28.2 18.6493 28.2C17.988 28.2 17.452 28.0427 17.0413 27.728C16.6306 27.4187 16.396 26.9973 16.3373 26.464H17.6893C17.732 26.6347 17.8333 26.768 17.9933 26.864C18.1533 26.9653 18.3506 27.016 18.5853 27.016C18.868 27.016 19.092 26.9333 19.2573 26.768C19.428 26.608 19.5133 26.3493 19.5133 25.992V25.36C19.38 25.568 19.196 25.7387 18.9613 25.872C18.7266 26 18.452 26.064 18.1373 26.064C17.7693 26.064 17.436 25.9707 17.1373 25.784C16.8386 25.592 16.6013 25.3227 16.4253 24.976C16.2546 24.624 16.1693 24.2187 16.1693 23.76C16.1693 23.3013 16.2546 22.8987 16.4253 22.552C16.6013 22.2053 16.8386 21.9387 17.1373 21.752C17.436 21.5653 17.7693 21.472 18.1373 21.472ZM19.5133 23.768C19.5133 23.4267 19.4173 23.1573 19.2253 22.96C19.0386 22.7627 18.8093 22.664 18.5373 22.664C18.2653 22.664 18.0333 22.7627 17.8413 22.96C17.6546 23.152 17.5613 23.4187 17.5613 23.76C17.5613 24.1013 17.6546 24.3733 17.8413 24.576C18.0333 24.7733 18.2653 24.872 18.5373 24.872C18.8093 24.872 19.0386 24.7733 19.2253 24.576C19.4173 24.3787 19.5133 24.1093 19.5133 23.768ZM21.599 23.76C21.599 23.3013 21.6843 22.8987 21.855 22.552C22.031 22.2053 22.2683 21.9387 22.567 21.752C22.8657 21.5653 23.199 21.472 23.567 21.472C23.8817 21.472 24.1563 21.536 24.391 21.664C24.631 21.792 24.815 21.96 24.943 22.168V21.536H26.311V26H24.943V25.368C24.8097 25.576 24.623 25.744 24.383 25.872C24.1483 26 23.8737 26.064 23.559 26.064C23.1963 26.064 22.8657 25.9707 22.567 25.784C22.2683 25.592 22.031 25.3227 21.855 24.976C21.6843 24.624 21.599 24.2187 21.599 23.76ZM24.943 23.768C24.943 23.4267 24.847 23.1573 24.655 22.96C24.4683 22.7627 24.239 22.664 23.967 22.664C23.695 22.664 23.463 22.7627 23.271 22.96C23.0843 23.152 22.991 23.4187 22.991 23.76C22.991 24.1013 23.0843 24.3733 23.271 24.576C23.463 24.7733 23.695 24.872 23.967 24.872C24.239 24.872 24.4683 24.7733 24.655 24.576C24.847 24.3787 24.943 24.1093 24.943 23.768ZM27.9807 21.072C27.7407 21.072 27.5434 21.0027 27.3887 20.864C27.2394 20.72 27.1647 20.544 27.1647 20.336C27.1647 20.1227 27.2394 19.9467 27.3887 19.808C27.5434 19.664 27.7407 19.592 27.9807 19.592C28.2154 19.592 28.4074 19.664 28.5567 19.808C28.7114 19.9467 28.7887 20.1227 28.7887 20.336C28.7887 20.544 28.7114 20.72 28.5567 20.864C28.4074 21.0027 28.2154 21.072 27.9807 21.072ZM28.6687 26.576C28.6687 27.1253 28.53 27.52 28.2527 27.76C27.9754 28.0053 27.5887 28.128 27.0927 28.128H26.5567V26.968H26.8847C27.034 26.968 27.1407 26.9387 27.2047 26.88C27.2687 26.8213 27.3007 26.7253 27.3007 26.592V21.536H28.6687V26.576ZM34.0603 21.536V26H32.6923V25.392C32.5536 25.5893 32.3643 25.7493 32.1243 25.872C31.8896 25.9893 31.6283 26.048 31.3403 26.048C30.9989 26.048 30.6976 25.9733 30.4363 25.824C30.1749 25.6693 29.9723 25.448 29.8283 25.16C29.6843 24.872 29.6123 24.5333 29.6123 24.144V21.536H30.9723V23.96C30.9723 24.2587 31.0496 24.4907 31.2043 24.656C31.3589 24.8213 31.5669 24.904 31.8283 24.904C32.0949 24.904 32.3056 24.8213 32.4603 24.656C32.6149 24.4907 32.6923 24.2587 32.6923 23.96V21.536H34.0603ZM34.7709 23.76C34.7709 23.3013 34.8562 22.8987 35.0269 22.552C35.2029 22.2053 35.4402 21.9387 35.7389 21.752C36.0375 21.5653 36.3709 21.472 36.7389 21.472C37.0535 21.472 37.3282 21.536 37.5629 21.664C37.8029 21.792 37.9869 21.96 38.1149 22.168V21.536H39.4829V26H38.1149V25.368C37.9815 25.576 37.7949 25.744 37.5549 25.872C37.3202 26 37.0455 26.064 36.7309 26.064C36.3682 26.064 36.0375 25.9707 35.7389 25.784C35.4402 25.592 35.2029 25.3227 35.0269 24.976C34.8562 24.624 34.7709 24.2187 34.7709 23.76ZM38.1149 23.768C38.1149 23.4267 38.0189 23.1573 37.8269 22.96C37.6402 22.7627 37.4109 22.664 37.1389 22.664C36.8669 22.664 36.6349 22.7627 36.4429 22.96C36.2562 23.152 36.1629 23.4187 36.1629 23.76C36.1629 24.1013 36.2562 24.3733 36.4429 24.576C36.6349 24.7733 36.8669 24.872 37.1389 24.872C37.4109 24.872 37.6402 24.7733 37.8269 24.576C38.0189 24.3787 38.1149 24.1093 38.1149 23.768ZM43.1926 21.488C43.7152 21.488 44.1312 21.6587 44.4406 22C44.7552 22.336 44.9126 22.8 44.9126 23.392V26H43.5526V23.576C43.5526 23.2773 43.4752 23.0453 43.3206 22.88C43.1659 22.7147 42.9579 22.632 42.6966 22.632C42.4352 22.632 42.2272 22.7147 42.0726 22.88C41.9179 23.0453 41.8406 23.2773 41.8406 23.576V26H40.4726V21.536H41.8406V22.128C41.9792 21.9307 42.1659 21.776 42.4006 21.664C42.6352 21.5467 42.8992 21.488 43.1926 21.488ZM15.1226 35.12C15.4479 35.1893 15.7092 35.352 15.9066 35.608C16.1039 35.8587 16.2026 36.1467 16.2026 36.472C16.2026 36.9413 16.0372 37.3147 15.7066 37.592C15.3812 37.864 14.9252 38 14.3386 38H11.7226V32.384H14.2506C14.8212 32.384 15.2666 32.5147 15.5866 32.776C15.9119 33.0373 16.0746 33.392 16.0746 33.84C16.0746 34.1707 15.9866 34.4453 15.8106 34.664C15.6399 34.8827 15.4106 35.0347 15.1226 35.12ZM13.0906 34.656H13.9866C14.2106 34.656 14.3812 34.608 14.4986 34.512C14.6212 34.4107 14.6826 34.264 14.6826 34.072C14.6826 33.88 14.6212 33.7333 14.4986 33.632C14.3812 33.5307 14.2106 33.48 13.9866 33.48H13.0906V34.656ZM14.0986 36.896C14.3279 36.896 14.5039 36.8453 14.6266 36.744C14.7546 36.6373 14.8186 36.4853 14.8186 36.288C14.8186 36.0907 14.7519 35.936 14.6186 35.824C14.4906 35.712 14.3119 35.656 14.0826 35.656H13.0906V36.896H14.0986ZM17.684 33.072C17.444 33.072 17.2467 33.0027 17.092 32.864C16.9427 32.72 16.868 32.544 16.868 32.336C16.868 32.1227 16.9427 31.9467 17.092 31.808C17.2467 31.664 17.444 31.592 17.684 31.592C17.9187 31.592 18.1107 31.664 18.26 31.808C18.4147 31.9467 18.492 32.1227 18.492 32.336C18.492 32.544 18.4147 32.72 18.26 32.864C18.1107 33.0027 17.9187 33.072 17.684 33.072ZM18.364 33.536V38H16.996V33.536H18.364ZM19.0834 35.76C19.0834 35.3013 19.1687 34.8987 19.3394 34.552C19.5154 34.2053 19.7527 33.9387 20.0514 33.752C20.35 33.5653 20.6834 33.472 21.0514 33.472C21.366 33.472 21.6407 33.536 21.8754 33.664C22.1154 33.792 22.2994 33.96 22.4274 34.168V33.536H23.7954V38H22.4274V37.368C22.294 37.576 22.1074 37.744 21.8674 37.872C21.6327 38 21.358 38.064 21.0434 38.064C20.6807 38.064 20.35 37.9707 20.0514 37.784C19.7527 37.592 19.5154 37.3227 19.3394 36.976C19.1687 36.624 19.0834 36.2187 19.0834 35.76ZM22.4274 35.768C22.4274 35.4267 22.3314 35.1573 22.1394 34.96C21.9527 34.7627 21.7234 34.664 21.4514 34.664C21.1794 34.664 20.9474 34.7627 20.7554 34.96C20.5687 35.152 20.4754 35.4187 20.4754 35.76C20.4754 36.1013 20.5687 36.3733 20.7554 36.576C20.9474 36.7733 21.1794 36.872 21.4514 36.872C21.7234 36.872 21.9527 36.7733 22.1394 36.576C22.3314 36.3787 22.4274 36.1093 22.4274 35.768ZM29.3451 33.536L26.5451 40.12H25.0731L26.0971 37.848L24.2811 33.536H25.8091L26.8411 36.328L27.8651 33.536H29.3451ZM29.5678 35.76C29.5678 35.3013 29.6531 34.8987 29.8238 34.552C29.9998 34.2053 30.2371 33.9387 30.5358 33.752C30.8344 33.5653 31.1678 33.472 31.5358 33.472C31.8504 33.472 32.1251 33.536 32.3598 33.664C32.5998 33.792 32.7838 33.96 32.9118 34.168V33.536H34.2798V38H32.9118V37.368C32.7784 37.576 32.5918 37.744 32.3518 37.872C32.1171 38 31.8424 38.064 31.5278 38.064C31.1651 38.064 30.8344 37.9707 30.5358 37.784C30.2371 37.592 29.9998 37.3227 29.8238 36.976C29.6531 36.624 29.5678 36.2187 29.5678 35.76ZM32.9118 35.768C32.9118 35.4267 32.8158 35.1573 32.6238 34.96C32.4371 34.7627 32.2078 34.664 31.9358 34.664C31.6638 34.664 31.4318 34.7627 31.2398 34.96C31.0531 35.152 30.9598 35.4187 30.9598 35.76C30.9598 36.1013 31.0531 36.3733 31.2398 36.576C31.4318 36.7733 31.6638 36.872 31.9358 36.872C32.2078 36.872 32.4371 36.7733 32.6238 36.576C32.8158 36.3787 32.9118 36.1093 32.9118 35.768Z" fill="black"/>
</svg>
