<svg width="63" height="31" viewBox="0 0 63 31" fill="none" xmlns="http://www.w3.org/2000/svg">
<path d="M40.3972 9C40.3972 13.711 36.7134 17.5 32.2055 17.5C27.6975 17.5 24.0137 13.711 24.0137 9C24.0137 4.28901 27.6975 0.5 32.2055 0.5C36.7134 0.5 40.3972 4.28901 40.3972 9Z" fill="#FCFBFE" stroke="#0267B2"/>
<path d="M30.39 11.63C30.6167 11.45 30.72 11.3667 30.7 11.38C31.3533 10.84 31.8667 10.3967 32.24 10.05C32.62 9.70333 32.94 9.34 33.2 8.96C33.46 8.58 33.59 8.21 33.59 7.85C33.59 7.57667 33.5267 7.36333 33.4 7.21C33.2733 7.05667 33.0833 6.98 32.83 6.98C32.5767 6.98 32.3767 7.07667 32.23 7.27C32.09 7.45667 32.02 7.72333 32.02 8.07H30.37C30.3833 7.50333 30.5033 7.03 30.73 6.65C30.9633 6.27 31.2667 5.99 31.64 5.81C32.02 5.63 32.44 5.54 32.9 5.54C33.6933 5.54 34.29 5.74333 34.69 6.15C35.0967 6.55667 35.3 7.08667 35.3 7.74C35.3 8.45333 35.0567 9.11667 34.57 9.73C34.0833 10.3367 33.4633 10.93 32.71 11.51H35.41V12.9H30.39V11.63Z" fill="#0267B2"/>
<path d="M1.90641 22.384V25.744C1.90641 26.08 1.98907 26.3387 2.15441 26.52C2.31974 26.7013 2.56241 26.792 2.88241 26.792C3.20241 26.792 3.44774 26.7013 3.61841 26.52C3.78907 26.3387 3.87441 26.08 3.87441 25.744V22.384H5.24241V25.736C5.24241 26.2373 5.13574 26.6613 4.92241 27.008C4.70907 27.3547 4.42107 27.616 4.05841 27.792C3.70107 27.968 3.30107 28.056 2.85841 28.056C2.41574 28.056 2.01841 27.9707 1.66641 27.8C1.31974 27.624 1.04507 27.3627 0.842406 27.016C0.63974 26.664 0.538406 26.2373 0.538406 25.736V22.384H1.90641ZM8.92303 23.488C9.4457 23.488 9.8617 23.6587 10.171 24C10.4857 24.336 10.643 24.8 10.643 25.392V28H9.28303V25.576C9.28303 25.2773 9.2057 25.0453 9.05103 24.88C8.89636 24.7147 8.68836 24.632 8.42703 24.632C8.1657 24.632 7.9577 24.7147 7.80303 24.88C7.64836 25.0453 7.57103 25.2773 7.57103 25.576V28H6.20303V23.536H7.57103V24.128C7.7097 23.9307 7.89636 23.776 8.13103 23.664C8.3657 23.5467 8.6297 23.488 8.92303 23.488ZM13.2897 23.472C13.6043 23.472 13.879 23.536 14.1137 23.664C14.3537 23.792 14.5377 23.96 14.6657 24.168V23.536H16.0337V27.992C16.0337 28.4027 15.951 28.7733 15.7857 29.104C15.6257 29.44 15.3777 29.7067 15.0417 29.904C14.711 30.1013 14.2977 30.2 13.8017 30.2C13.1403 30.2 12.6043 30.0427 12.1937 29.728C11.783 29.4187 11.5483 28.9973 11.4897 28.464H12.8417C12.8843 28.6347 12.9857 28.768 13.1457 28.864C13.3057 28.9653 13.503 29.016 13.7377 29.016C14.0203 29.016 14.2443 28.9333 14.4097 28.768C14.5803 28.608 14.6657 28.3493 14.6657 27.992V27.36C14.5323 27.568 14.3483 27.7387 14.1137 27.872C13.879 28 13.6043 28.064 13.2897 28.064C12.9217 28.064 12.5883 27.9707 12.2897 27.784C11.991 27.592 11.7537 27.3227 11.5777 26.976C11.407 26.624 11.3217 26.2187 11.3217 25.76C11.3217 25.3013 11.407 24.8987 11.5777 24.552C11.7537 24.2053 11.991 23.9387 12.2897 23.752C12.5883 23.5653 12.9217 23.472 13.2897 23.472ZM14.6657 25.768C14.6657 25.4267 14.5697 25.1573 14.3777 24.96C14.191 24.7627 13.9617 24.664 13.6897 24.664C13.4177 24.664 13.1857 24.7627 12.9937 24.96C12.807 25.152 12.7137 25.4187 12.7137 25.76C12.7137 26.1013 12.807 26.3733 12.9937 26.576C13.1857 26.7733 13.4177 26.872 13.6897 26.872C13.9617 26.872 14.191 26.7733 14.3777 26.576C14.5697 26.3787 14.6657 26.1093 14.6657 25.768ZM18.7193 23.472C19.034 23.472 19.3087 23.536 19.5433 23.664C19.7833 23.792 19.9673 23.96 20.0953 24.168V23.536H21.4633V27.992C21.4633 28.4027 21.3807 28.7733 21.2153 29.104C21.0553 29.44 20.8073 29.7067 20.4713 29.904C20.1407 30.1013 19.7273 30.2 19.2313 30.2C18.57 30.2 18.034 30.0427 17.6233 29.728C17.2127 29.4187 16.978 28.9973 16.9193 28.464H18.2713C18.314 28.6347 18.4153 28.768 18.5753 28.864C18.7353 28.9653 18.9327 29.016 19.1673 29.016C19.45 29.016 19.674 28.9333 19.8393 28.768C20.01 28.608 20.0953 28.3493 20.0953 27.992V27.36C19.962 27.568 19.778 27.7387 19.5433 27.872C19.3087 28 19.034 28.064 18.7193 28.064C18.3513 28.064 18.018 27.9707 17.7193 27.784C17.4207 27.592 17.1833 27.3227 17.0073 26.976C16.8367 26.624 16.7513 26.2187 16.7513 25.76C16.7513 25.3013 16.8367 24.8987 17.0073 24.552C17.1833 24.2053 17.4207 23.9387 17.7193 23.752C18.018 23.5653 18.3513 23.472 18.7193 23.472ZM20.0953 25.768C20.0953 25.4267 19.9993 25.1573 19.8073 24.96C19.6207 24.7627 19.3913 24.664 19.1193 24.664C18.8473 24.664 18.6153 24.7627 18.4233 24.96C18.2367 25.152 18.1433 25.4187 18.1433 25.76C18.1433 26.1013 18.2367 26.3733 18.4233 26.576C18.6153 26.7733 18.8473 26.872 19.1193 26.872C19.3913 26.872 19.6207 26.7733 19.8073 26.576C19.9993 26.3787 20.0953 26.1093 20.0953 25.768ZM22.181 25.76C22.181 25.3013 22.2664 24.8987 22.437 24.552C22.613 24.2053 22.8504 23.9387 23.149 23.752C23.4477 23.5653 23.781 23.472 24.149 23.472C24.4637 23.472 24.7384 23.536 24.973 23.664C25.213 23.792 25.397 23.96 25.525 24.168V23.536H26.893V28H25.525V27.368C25.3917 27.576 25.205 27.744 24.965 27.872C24.7304 28 24.4557 28.064 24.141 28.064C23.7784 28.064 23.4477 27.9707 23.149 27.784C22.8504 27.592 22.613 27.3227 22.437 26.976C22.2664 26.624 22.181 26.2187 22.181 25.76ZM25.525 25.768C25.525 25.4267 25.429 25.1573 25.237 24.96C25.0504 24.7627 24.821 24.664 24.549 24.664C24.277 24.664 24.045 24.7627 23.853 24.96C23.6664 25.152 23.573 25.4187 23.573 25.76C23.573 26.1013 23.6664 26.3733 23.853 26.576C24.045 26.7733 24.277 26.872 24.549 26.872C24.821 26.872 25.0504 26.7733 25.237 26.576C25.429 26.3787 25.525 26.1093 25.525 25.768ZM30.6267 23.488C31.1387 23.488 31.5494 23.6587 31.8587 24C32.1681 24.336 32.3227 24.8 32.3227 25.392V28H30.9627V25.576C30.9627 25.2773 30.8854 25.0453 30.7307 24.88C30.5761 24.7147 30.3681 24.632 30.1067 24.632C29.8454 24.632 29.6374 24.7147 29.4827 24.88C29.3281 25.0453 29.2507 25.2773 29.2507 25.576V28H27.8827V22.08H29.2507V24.136C29.3894 23.9387 29.5787 23.7813 29.8187 23.664C30.0587 23.5467 30.3281 23.488 30.6267 23.488ZM38.3687 25.12C38.694 25.1893 38.9553 25.352 39.1527 25.608C39.35 25.8587 39.4487 26.1467 39.4487 26.472C39.4487 26.9413 39.2833 27.3147 38.9527 27.592C38.6273 27.864 38.1713 28 37.5847 28H34.9687V22.384H37.4967C38.0673 22.384 38.5127 22.5147 38.8327 22.776C39.158 23.0373 39.3207 23.392 39.3207 23.84C39.3207 24.1707 39.2327 24.4453 39.0567 24.664C38.886 24.8827 38.6567 25.0347 38.3687 25.12ZM36.3367 24.656H37.2327C37.4567 24.656 37.6273 24.608 37.7447 24.512C37.8673 24.4107 37.9287 24.264 37.9287 24.072C37.9287 23.88 37.8673 23.7333 37.7447 23.632C37.6273 23.5307 37.4567 23.48 37.2327 23.48H36.3367V24.656ZM37.3447 26.896C37.574 26.896 37.75 26.8453 37.8727 26.744C38.0007 26.6373 38.0647 26.4853 38.0647 26.288C38.0647 26.0907 37.998 25.936 37.8647 25.824C37.7367 25.712 37.558 25.656 37.3287 25.656H36.3367V26.896H37.3447ZM44.4501 25.696C44.4501 25.824 44.4421 25.9573 44.4261 26.096H41.3301C41.3514 26.3733 41.4394 26.5867 41.5941 26.736C41.7541 26.88 41.9488 26.952 42.1781 26.952C42.5194 26.952 42.7568 26.808 42.8901 26.52H44.3461C44.2714 26.8133 44.1354 27.0773 43.9381 27.312C43.7461 27.5467 43.5034 27.7307 43.2101 27.864C42.9168 27.9973 42.5888 28.064 42.2261 28.064C41.7888 28.064 41.3994 27.9707 41.0581 27.784C40.7168 27.5973 40.4501 27.3307 40.2581 26.984C40.0661 26.6373 39.9701 26.232 39.9701 25.768C39.9701 25.304 40.0634 24.8987 40.2501 24.552C40.4421 24.2053 40.7088 23.9387 41.0501 23.752C41.3914 23.5653 41.7834 23.472 42.2261 23.472C42.6581 23.472 43.0421 23.5627 43.3781 23.744C43.7141 23.9253 43.9754 24.184 44.1621 24.52C44.3541 24.856 44.4501 25.248 44.4501 25.696ZM43.0501 25.336C43.0501 25.1013 42.9701 24.9147 42.8101 24.776C42.6501 24.6373 42.4501 24.568 42.2101 24.568C41.9808 24.568 41.7861 24.6347 41.6261 24.768C41.4714 24.9013 41.3754 25.0907 41.3381 25.336H43.0501ZM46.5398 24.28C46.6998 24.0347 46.8998 23.8427 47.1398 23.704C47.3798 23.56 47.6464 23.488 47.9398 23.488V24.936H47.5638C47.2224 24.936 46.9664 25.0107 46.7958 25.16C46.6251 25.304 46.5398 25.56 46.5398 25.928V28H45.1718V23.536H46.5398V24.28ZM51.3217 28L49.9617 26.128V28H48.5937V22.08H49.9617V25.352L51.3137 23.536H53.0017L51.1457 25.776L53.0177 28H51.3217ZM53.267 25.76C53.267 25.3013 53.3523 24.8987 53.523 24.552C53.699 24.2053 53.9363 23.9387 54.235 23.752C54.5336 23.5653 54.867 23.472 55.235 23.472C55.5496 23.472 55.8243 23.536 56.059 23.664C56.299 23.792 56.483 23.96 56.611 24.168V23.536H57.979V28H56.611V27.368C56.4776 27.576 56.291 27.744 56.051 27.872C55.8163 28 55.5416 28.064 55.227 28.064C54.8643 28.064 54.5336 27.9707 54.235 27.784C53.9363 27.592 53.699 27.3227 53.523 26.976C53.3523 26.624 53.267 26.2187 53.267 25.76ZM56.611 25.768C56.611 25.4267 56.515 25.1573 56.323 24.96C56.1363 24.7627 55.907 24.664 55.635 24.664C55.363 24.664 55.131 24.7627 54.939 24.96C54.7523 25.152 54.659 25.4187 54.659 25.76C54.659 26.1013 54.7523 26.3733 54.939 26.576C55.131 26.7733 55.363 26.872 55.635 26.872C55.907 26.872 56.1363 26.7733 56.323 26.576C56.515 26.3787 56.611 26.1093 56.611 25.768ZM60.7847 28.064C60.3953 28.064 60.0487 27.9973 59.7447 27.864C59.4407 27.7307 59.2007 27.5493 59.0247 27.32C58.8487 27.0853 58.75 26.824 58.7287 26.536H60.0807C60.0967 26.6907 60.1687 26.816 60.2967 26.912C60.4247 27.008 60.582 27.056 60.7687 27.056C60.9393 27.056 61.07 27.024 61.1607 26.96C61.2567 26.8907 61.3047 26.8027 61.3047 26.696C61.3047 26.568 61.238 26.4747 61.1047 26.416C60.9713 26.352 60.7553 26.2827 60.4567 26.208C60.1367 26.1333 59.87 26.056 59.6567 25.976C59.4433 25.8907 59.2593 25.76 59.1047 25.584C58.95 25.4027 58.8727 25.16 58.8727 24.856C58.8727 24.6 58.942 24.368 59.0807 24.16C59.2247 23.9467 59.4327 23.7787 59.7047 23.656C59.982 23.5333 60.31 23.472 60.6887 23.472C61.2487 23.472 61.6887 23.6107 62.0087 23.888C62.334 24.1653 62.5207 24.5333 62.5687 24.992H61.3047C61.2833 24.8373 61.214 24.7147 61.0967 24.624C60.9847 24.5333 60.8353 24.488 60.6487 24.488C60.4887 24.488 60.366 24.52 60.2807 24.584C60.1953 24.6427 60.1527 24.7253 60.1527 24.832C60.1527 24.96 60.2193 25.056 60.3527 25.12C60.4913 25.184 60.7047 25.248 60.9927 25.312C61.3233 25.3973 61.5927 25.4827 61.8007 25.568C62.0087 25.648 62.19 25.7813 62.3447 25.968C62.5047 26.1493 62.5873 26.3947 62.5927 26.704C62.5927 26.9653 62.518 27.2 62.3687 27.408C62.2247 27.6107 62.014 27.7707 61.7367 27.888C61.4647 28.0053 61.1473 28.064 60.7847 28.064Z" fill="#323232"/>
</svg>
