<svg width="35" height="31" viewBox="0 0 35 31" fill="none" xmlns="http://www.w3.org/2000/svg">
<path d="M26.3972 9C26.3972 13.711 22.7134 17.5 18.2055 17.5C13.6975 17.5 10.0137 13.711 10.0137 9C10.0137 4.28901 13.6975 0.5 18.2055 0.5C22.7134 0.5 26.3972 4.28901 26.3972 9Z" fill="#FCFBFE" stroke="#0267B2"/>
<path d="M16.27 7.29V5.7H19.04V13H17.26V7.29H16.27Z" fill="#0267B2"/>
<path d="M3.24681 22.384V28H1.87881V22.384H3.24681ZM6.05419 28.064C5.66485 28.064 5.31819 27.9973 5.01419 27.864C4.71019 27.7307 4.47019 27.5493 4.29419 27.32C4.11819 27.0853 4.01952 26.824 3.99819 26.536H5.35019C5.36619 26.6907 5.43819 26.816 5.56619 26.912C5.69419 27.008 5.85152 27.056 6.03819 27.056C6.20885 27.056 6.33952 27.024 6.43019 26.96C6.52619 26.8907 6.57419 26.8027 6.57419 26.696C6.57419 26.568 6.50752 26.4747 6.37419 26.416C6.24085 26.352 6.02485 26.2827 5.72619 26.208C5.40619 26.1333 5.13952 26.056 4.92619 25.976C4.71285 25.8907 4.52885 25.76 4.37419 25.584C4.21952 25.4027 4.14219 25.16 4.14219 24.856C4.14219 24.6 4.21152 24.368 4.35019 24.16C4.49419 23.9467 4.70219 23.7787 4.97419 23.656C5.25152 23.5333 5.57952 23.472 5.95819 23.472C6.51819 23.472 6.95819 23.6107 7.27819 23.888C7.60352 24.1653 7.79019 24.5333 7.83819 24.992H6.57419C6.55285 24.8373 6.48352 24.7147 6.36619 24.624C6.25419 24.5333 6.10485 24.488 5.91819 24.488C5.75819 24.488 5.63552 24.52 5.55019 24.584C5.46485 24.6427 5.42219 24.7253 5.42219 24.832C5.42219 24.96 5.48885 25.056 5.62219 25.12C5.76085 25.184 5.97419 25.248 6.26219 25.312C6.59285 25.3973 6.86219 25.4827 7.07019 25.568C7.27819 25.648 7.45952 25.7813 7.61419 25.968C7.77419 26.1493 7.85685 26.3947 7.86219 26.704C7.86219 26.9653 7.78752 27.2 7.63819 27.408C7.49419 27.6107 7.28352 27.7707 7.00619 27.888C6.73419 28.0053 6.41685 28.064 6.05419 28.064ZM9.38713 23.072C9.14713 23.072 8.94979 23.0027 8.79513 22.864C8.64579 22.72 8.57113 22.544 8.57113 22.336C8.57113 22.1227 8.64579 21.9467 8.79513 21.808C8.94979 21.664 9.14713 21.592 9.38713 21.592C9.62179 21.592 9.81379 21.664 9.96313 21.808C10.1178 21.9467 10.1951 22.1227 10.1951 22.336C10.1951 22.544 10.1178 22.72 9.96313 22.864C9.81379 23.0027 9.62179 23.072 9.38713 23.072ZM10.0671 23.536V28H8.69913V23.536H10.0671ZM16.4098 22.384V23.48H14.1218V24.664H15.8338V25.728H14.1218V28H12.7538V22.384H16.4098ZM19.1608 28.064C18.7235 28.064 18.3288 27.9707 17.9768 27.784C17.6301 27.5973 17.3555 27.3307 17.1528 26.984C16.9555 26.6373 16.8568 26.232 16.8568 25.768C16.8568 25.3093 16.9581 24.9067 17.1608 24.56C17.3635 24.208 17.6408 23.9387 17.9928 23.752C18.3448 23.5653 18.7395 23.472 19.1768 23.472C19.6141 23.472 20.0088 23.5653 20.3608 23.752C20.7128 23.9387 20.9901 24.208 21.1928 24.56C21.3955 24.9067 21.4968 25.3093 21.4968 25.768C21.4968 26.2267 21.3928 26.632 21.1848 26.984C20.9821 27.3307 20.7021 27.5973 20.3448 27.784C19.9928 27.9707 19.5981 28.064 19.1608 28.064ZM19.1608 26.88C19.4221 26.88 19.6435 26.784 19.8248 26.592C20.0115 26.4 20.1048 26.1253 20.1048 25.768C20.1048 25.4107 20.0141 25.136 19.8328 24.944C19.6568 24.752 19.4381 24.656 19.1768 24.656C18.9101 24.656 18.6888 24.752 18.5128 24.944C18.3368 25.1307 18.2488 25.4053 18.2488 25.768C18.2488 26.1253 18.3341 26.4 18.5048 26.592C18.6808 26.784 18.8995 26.88 19.1608 26.88ZM23.5906 24.28C23.7506 24.0347 23.9506 23.8427 24.1906 23.704C24.4306 23.56 24.6972 23.488 24.9906 23.488V24.936H24.6146C24.2732 24.936 24.0172 25.0107 23.8466 25.16C23.6759 25.304 23.5906 25.56 23.5906 25.928V28H22.2226V23.536H23.5906V24.28ZM31.3404 23.488C31.8951 23.488 32.3351 23.656 32.6604 23.992C32.9911 24.328 33.1564 24.7947 33.1564 25.392V28H31.7964V25.576C31.7964 25.288 31.7191 25.0667 31.5644 24.912C31.4151 24.752 31.2071 24.672 30.9404 24.672C30.6738 24.672 30.4631 24.752 30.3084 24.912C30.1591 25.0667 30.0844 25.288 30.0844 25.576V28H28.7244V25.576C28.7244 25.288 28.6471 25.0667 28.4924 24.912C28.3431 24.752 28.1351 24.672 27.8684 24.672C27.6018 24.672 27.3911 24.752 27.2364 24.912C27.0871 25.0667 27.0124 25.288 27.0124 25.576V28H25.6444V23.536H27.0124V24.096C27.1511 23.9093 27.3324 23.7627 27.5564 23.656C27.7804 23.544 28.0338 23.488 28.3164 23.488C28.6524 23.488 28.9511 23.56 29.2124 23.704C29.4791 23.848 29.6871 24.0533 29.8364 24.32C29.9911 24.0747 30.2018 23.8747 30.4684 23.72C30.7351 23.5653 31.0258 23.488 31.3404 23.488Z" fill="#323232"/>
</svg>
