<svg width="46" height="42" viewBox="0 0 46 42" fill="none" xmlns="http://www.w3.org/2000/svg">
<path d="M30.3972 9C30.3972 13.711 26.7134 17.5 22.2055 17.5C17.6975 17.5 14.0137 13.711 14.0137 9C14.0137 4.28901 17.6975 0.5 22.2055 0.5C26.7134 0.5 30.3972 4.28901 30.3972 9Z" fill="#FCFBFE" stroke="#0267B2"/>
<path d="M19.51 7.76C19.5367 7.04667 19.77 6.49667 20.21 6.11C20.65 5.72333 21.2467 5.53 22 5.53C22.5 5.53 22.9267 5.61667 23.28 5.79C23.64 5.96333 23.91 6.2 24.09 6.5C24.2767 6.8 24.37 7.13667 24.37 7.51C24.37 7.95 24.26 8.31 24.04 8.59C23.82 8.86333 23.5633 9.05 23.27 9.15V9.19C23.65 9.31667 23.95 9.52667 24.17 9.82C24.39 10.1133 24.5 10.49 24.5 10.95C24.5 11.3633 24.4033 11.73 24.21 12.05C24.0233 12.3633 23.7467 12.61 23.38 12.79C23.02 12.97 22.59 13.06 22.09 13.06C21.29 13.06 20.65 12.8633 20.17 12.47C19.6967 12.0767 19.4467 11.4833 19.42 10.69H21.08C21.0867 10.9833 21.17 11.2167 21.33 11.39C21.49 11.5567 21.7233 11.64 22.03 11.64C22.29 11.64 22.49 11.5667 22.63 11.42C22.7767 11.2667 22.85 11.0667 22.85 10.82C22.85 10.5 22.7467 10.27 22.54 10.13C22.34 9.98333 22.0167 9.91 21.57 9.91H21.25V8.52H21.57C21.91 8.52 22.1833 8.46333 22.39 8.35C22.6033 8.23 22.71 8.02 22.71 7.72C22.71 7.48 22.6433 7.29333 22.51 7.16C22.3767 7.02667 22.1933 6.96 21.96 6.96C21.7067 6.96 21.5167 7.03667 21.39 7.19C21.27 7.34333 21.2 7.53333 21.18 7.76H19.51Z" fill="#0267B2"/>
<path d="M5.40881 23.192C5.40881 23.5173 5.33415 23.816 5.18481 24.088C5.03548 24.3547 4.80615 24.5707 4.49681 24.736C4.18748 24.9013 3.80348 24.984 3.34481 24.984H2.49681V27H1.12881V21.384H3.34481C3.79281 21.384 4.17148 21.4613 4.48081 21.616C4.79015 21.7707 5.02215 21.984 5.17681 22.256C5.33148 22.528 5.40881 22.84 5.40881 23.192ZM3.24081 23.896C3.50215 23.896 3.69681 23.8347 3.82481 23.712C3.95281 23.5893 4.01681 23.416 4.01681 23.192C4.01681 22.968 3.95281 22.7947 3.82481 22.672C3.69681 22.5493 3.50215 22.488 3.24081 22.488H2.49681V23.896H3.24081ZM10.329 24.696C10.329 24.824 10.321 24.9573 10.305 25.096H7.209C7.23033 25.3733 7.31833 25.5867 7.473 25.736C7.633 25.88 7.82767 25.952 8.057 25.952C8.39833 25.952 8.63567 25.808 8.769 25.52H10.225C10.1503 25.8133 10.0143 26.0773 9.817 26.312C9.625 26.5467 9.38233 26.7307 9.089 26.864C8.79567 26.9973 8.46767 27.064 8.105 27.064C7.66767 27.064 7.27833 26.9707 6.937 26.784C6.59567 26.5973 6.329 26.3307 6.137 25.984C5.945 25.6373 5.849 25.232 5.849 24.768C5.849 24.304 5.94233 23.8987 6.129 23.552C6.321 23.2053 6.58767 22.9387 6.929 22.752C7.27033 22.5653 7.66233 22.472 8.105 22.472C8.537 22.472 8.921 22.5627 9.257 22.744C9.593 22.9253 9.85433 23.184 10.041 23.52C10.233 23.856 10.329 24.248 10.329 24.696ZM8.929 24.336C8.929 24.1013 8.849 23.9147 8.689 23.776C8.529 23.6373 8.329 23.568 8.089 23.568C7.85967 23.568 7.665 23.6347 7.505 23.768C7.35033 23.9013 7.25433 24.0907 7.217 24.336H8.929ZM13.7707 22.488C14.2934 22.488 14.7094 22.6587 15.0187 23C15.3334 23.336 15.4907 23.8 15.4907 24.392V27H14.1307V24.576C14.1307 24.2773 14.0534 24.0453 13.8987 23.88C13.744 23.7147 13.536 23.632 13.2747 23.632C13.0134 23.632 12.8054 23.7147 12.6507 23.88C12.496 24.0453 12.4187 24.2773 12.4187 24.576V27H11.0507V22.536H12.4187V23.128C12.5574 22.9307 12.744 22.776 12.9787 22.664C13.2134 22.5467 13.4774 22.488 13.7707 22.488ZM18.1373 22.472C18.452 22.472 18.7266 22.536 18.9613 22.664C19.2013 22.792 19.3853 22.96 19.5133 23.168V22.536H20.8813V26.992C20.8813 27.4027 20.7986 27.7733 20.6333 28.104C20.4733 28.44 20.2253 28.7067 19.8893 28.904C19.5586 29.1013 19.1453 29.2 18.6493 29.2C17.988 29.2 17.452 29.0427 17.0413 28.728C16.6306 28.4187 16.396 27.9973 16.3373 27.464H17.6893C17.732 27.6347 17.8333 27.768 17.9933 27.864C18.1533 27.9653 18.3506 28.016 18.5853 28.016C18.868 28.016 19.092 27.9333 19.2573 27.768C19.428 27.608 19.5133 27.3493 19.5133 26.992V26.36C19.38 26.568 19.196 26.7387 18.9613 26.872C18.7266 27 18.452 27.064 18.1373 27.064C17.7693 27.064 17.436 26.9707 17.1373 26.784C16.8386 26.592 16.6013 26.3227 16.4253 25.976C16.2546 25.624 16.1693 25.2187 16.1693 24.76C16.1693 24.3013 16.2546 23.8987 16.4253 23.552C16.6013 23.2053 16.8386 22.9387 17.1373 22.752C17.436 22.5653 17.7693 22.472 18.1373 22.472ZM19.5133 24.768C19.5133 24.4267 19.4173 24.1573 19.2253 23.96C19.0386 23.7627 18.8093 23.664 18.5373 23.664C18.2653 23.664 18.0333 23.7627 17.8413 23.96C17.6546 24.152 17.5613 24.4187 17.5613 24.76C17.5613 25.1013 17.6546 25.3733 17.8413 25.576C18.0333 25.7733 18.2653 25.872 18.5373 25.872C18.8093 25.872 19.0386 25.7733 19.2253 25.576C19.4173 25.3787 19.5133 25.1093 19.5133 24.768ZM21.599 24.76C21.599 24.3013 21.6843 23.8987 21.855 23.552C22.031 23.2053 22.2683 22.9387 22.567 22.752C22.8657 22.5653 23.199 22.472 23.567 22.472C23.8817 22.472 24.1563 22.536 24.391 22.664C24.631 22.792 24.815 22.96 24.943 23.168V22.536H26.311V27H24.943V26.368C24.8097 26.576 24.623 26.744 24.383 26.872C24.1483 27 23.8737 27.064 23.559 27.064C23.1963 27.064 22.8657 26.9707 22.567 26.784C22.2683 26.592 22.031 26.3227 21.855 25.976C21.6843 25.624 21.599 25.2187 21.599 24.76ZM24.943 24.768C24.943 24.4267 24.847 24.1573 24.655 23.96C24.4683 23.7627 24.239 23.664 23.967 23.664C23.695 23.664 23.463 23.7627 23.271 23.96C23.0843 24.152 22.991 24.4187 22.991 24.76C22.991 25.1013 23.0843 25.3733 23.271 25.576C23.463 25.7733 23.695 25.872 23.967 25.872C24.239 25.872 24.4683 25.7733 24.655 25.576C24.847 25.3787 24.943 25.1093 24.943 24.768ZM27.9807 22.072C27.7407 22.072 27.5434 22.0027 27.3887 21.864C27.2394 21.72 27.1647 21.544 27.1647 21.336C27.1647 21.1227 27.2394 20.9467 27.3887 20.808C27.5434 20.664 27.7407 20.592 27.9807 20.592C28.2154 20.592 28.4074 20.664 28.5567 20.808C28.7114 20.9467 28.7887 21.1227 28.7887 21.336C28.7887 21.544 28.7114 21.72 28.5567 21.864C28.4074 22.0027 28.2154 22.072 27.9807 22.072ZM28.6687 27.576C28.6687 28.1253 28.53 28.52 28.2527 28.76C27.9754 29.0053 27.5887 29.128 27.0927 29.128H26.5567V27.968H26.8847C27.034 27.968 27.1407 27.9387 27.2047 27.88C27.2687 27.8213 27.3007 27.7253 27.3007 27.592V22.536H28.6687V27.576ZM34.0603 22.536V27H32.6923V26.392C32.5536 26.5893 32.3643 26.7493 32.1243 26.872C31.8896 26.9893 31.6283 27.048 31.3403 27.048C30.9989 27.048 30.6976 26.9733 30.4363 26.824C30.1749 26.6693 29.9723 26.448 29.8283 26.16C29.6843 25.872 29.6123 25.5333 29.6123 25.144V22.536H30.9723V24.96C30.9723 25.2587 31.0496 25.4907 31.2043 25.656C31.3589 25.8213 31.5669 25.904 31.8283 25.904C32.0949 25.904 32.3056 25.8213 32.4603 25.656C32.6149 25.4907 32.6923 25.2587 32.6923 24.96V22.536H34.0603ZM34.7709 24.76C34.7709 24.3013 34.8562 23.8987 35.0269 23.552C35.2029 23.2053 35.4402 22.9387 35.7389 22.752C36.0375 22.5653 36.3709 22.472 36.7389 22.472C37.0535 22.472 37.3282 22.536 37.5629 22.664C37.8029 22.792 37.9869 22.96 38.1149 23.168V22.536H39.4829V27H38.1149V26.368C37.9815 26.576 37.7949 26.744 37.5549 26.872C37.3202 27 37.0455 27.064 36.7309 27.064C36.3682 27.064 36.0375 26.9707 35.7389 26.784C35.4402 26.592 35.2029 26.3227 35.0269 25.976C34.8562 25.624 34.7709 25.2187 34.7709 24.76ZM38.1149 24.768C38.1149 24.4267 38.0189 24.1573 37.8269 23.96C37.6402 23.7627 37.4109 23.664 37.1389 23.664C36.8669 23.664 36.6349 23.7627 36.4429 23.96C36.2562 24.152 36.1629 24.4187 36.1629 24.76C36.1629 25.1013 36.2562 25.3733 36.4429 25.576C36.6349 25.7733 36.8669 25.872 37.1389 25.872C37.4109 25.872 37.6402 25.7733 37.8269 25.576C38.0189 25.3787 38.1149 25.1093 38.1149 24.768ZM43.1926 22.488C43.7152 22.488 44.1312 22.6587 44.4406 23C44.7552 23.336 44.9126 23.8 44.9126 24.392V27H43.5526V24.576C43.5526 24.2773 43.4752 24.0453 43.3206 23.88C43.1659 23.7147 42.9579 23.632 42.6966 23.632C42.4352 23.632 42.2272 23.7147 42.0726 23.88C41.9179 24.0453 41.8406 24.2773 41.8406 24.576V27H40.4726V22.536H41.8406V23.128C41.9792 22.9307 42.1659 22.776 42.4006 22.664C42.6352 22.5467 42.8992 22.488 43.1926 22.488ZM15.1226 36.12C15.4479 36.1893 15.7092 36.352 15.9066 36.608C16.1039 36.8587 16.2026 37.1467 16.2026 37.472C16.2026 37.9413 16.0372 38.3147 15.7066 38.592C15.3812 38.864 14.9252 39 14.3386 39H11.7226V33.384H14.2506C14.8212 33.384 15.2666 33.5147 15.5866 33.776C15.9119 34.0373 16.0746 34.392 16.0746 34.84C16.0746 35.1707 15.9866 35.4453 15.8106 35.664C15.6399 35.8827 15.4106 36.0347 15.1226 36.12ZM13.0906 35.656H13.9866C14.2106 35.656 14.3812 35.608 14.4986 35.512C14.6212 35.4107 14.6826 35.264 14.6826 35.072C14.6826 34.88 14.6212 34.7333 14.4986 34.632C14.3812 34.5307 14.2106 34.48 13.9866 34.48H13.0906V35.656ZM14.0986 37.896C14.3279 37.896 14.5039 37.8453 14.6266 37.744C14.7546 37.6373 14.8186 37.4853 14.8186 37.288C14.8186 37.0907 14.7519 36.936 14.6186 36.824C14.4906 36.712 14.3119 36.656 14.0826 36.656H13.0906V37.896H14.0986ZM17.684 34.072C17.444 34.072 17.2467 34.0027 17.092 33.864C16.9427 33.72 16.868 33.544 16.868 33.336C16.868 33.1227 16.9427 32.9467 17.092 32.808C17.2467 32.664 17.444 32.592 17.684 32.592C17.9187 32.592 18.1107 32.664 18.26 32.808C18.4147 32.9467 18.492 33.1227 18.492 33.336C18.492 33.544 18.4147 33.72 18.26 33.864C18.1107 34.0027 17.9187 34.072 17.684 34.072ZM18.364 34.536V39H16.996V34.536H18.364ZM19.0834 36.76C19.0834 36.3013 19.1687 35.8987 19.3394 35.552C19.5154 35.2053 19.7527 34.9387 20.0514 34.752C20.35 34.5653 20.6834 34.472 21.0514 34.472C21.366 34.472 21.6407 34.536 21.8754 34.664C22.1154 34.792 22.2994 34.96 22.4274 35.168V34.536H23.7954V39H22.4274V38.368C22.294 38.576 22.1074 38.744 21.8674 38.872C21.6327 39 21.358 39.064 21.0434 39.064C20.6807 39.064 20.35 38.9707 20.0514 38.784C19.7527 38.592 19.5154 38.3227 19.3394 37.976C19.1687 37.624 19.0834 37.2187 19.0834 36.76ZM22.4274 36.768C22.4274 36.4267 22.3314 36.1573 22.1394 35.96C21.9527 35.7627 21.7234 35.664 21.4514 35.664C21.1794 35.664 20.9474 35.7627 20.7554 35.96C20.5687 36.152 20.4754 36.4187 20.4754 36.76C20.4754 37.1013 20.5687 37.3733 20.7554 37.576C20.9474 37.7733 21.1794 37.872 21.4514 37.872C21.7234 37.872 21.9527 37.7733 22.1394 37.576C22.3314 37.3787 22.4274 37.1093 22.4274 36.768ZM29.3451 34.536L26.5451 41.12H25.0731L26.0971 38.848L24.2811 34.536H25.8091L26.8411 37.328L27.8651 34.536H29.3451ZM29.5678 36.76C29.5678 36.3013 29.6531 35.8987 29.8238 35.552C29.9998 35.2053 30.2371 34.9387 30.5358 34.752C30.8344 34.5653 31.1678 34.472 31.5358 34.472C31.8504 34.472 32.1251 34.536 32.3598 34.664C32.5998 34.792 32.7838 34.96 32.9118 35.168V34.536H34.2798V39H32.9118V38.368C32.7784 38.576 32.5918 38.744 32.3518 38.872C32.1171 39 31.8424 39.064 31.5278 39.064C31.1651 39.064 30.8344 38.9707 30.5358 38.784C30.2371 38.592 29.9998 38.3227 29.8238 37.976C29.6531 37.624 29.5678 37.2187 29.5678 36.76ZM32.9118 36.768C32.9118 36.4267 32.8158 36.1573 32.6238 35.96C32.4371 35.7627 32.2078 35.664 31.9358 35.664C31.6638 35.664 31.4318 35.7627 31.2398 35.96C31.0531 36.152 30.9598 36.4187 30.9598 36.76C30.9598 37.1013 31.0531 37.3733 31.2398 37.576C31.4318 37.7733 31.6638 37.872 31.9358 37.872C32.2078 37.872 32.4371 37.7733 32.6238 37.576C32.8158 37.3787 32.9118 37.1093 32.9118 36.768Z" fill="#323232"/>
</svg>
