<svg width="67" height="30" viewBox="0 0 67 30" fill="none" xmlns="http://www.w3.org/2000/svg">
<path d="M41.2534 9C41.2534 13.711 37.5695 17.5 33.0616 17.5C28.5537 17.5 24.8698 13.711 24.8698 9C24.8698 4.28901 28.5537 0.5 33.0616 0.5C37.5695 0.5 41.2534 4.28901 41.2534 9Z" fill="#FCFBFE" stroke="#C2CFD7"/>
<path d="M30.5543 11.63C30.781 11.45 30.8843 11.3667 30.8643 11.38C31.5176 10.84 32.031 10.3967 32.4043 10.05C32.7843 9.70333 33.1043 9.34 33.3643 8.96C33.6243 8.58 33.7543 8.21 33.7543 7.85C33.7543 7.57667 33.691 7.36333 33.5643 7.21C33.4376 7.05667 33.2476 6.98 32.9943 6.98C32.741 6.98 32.541 7.07667 32.3943 7.27C32.2543 7.45667 32.1843 7.72333 32.1843 8.07H30.5343C30.5476 7.50333 30.6676 7.03 30.8943 6.65C31.1276 6.27 31.431 5.99 31.8043 5.81C32.1843 5.63 32.6043 5.54 33.0643 5.54C33.8576 5.54 34.4543 5.74333 34.8543 6.15C35.261 6.55667 35.4643 7.08667 35.4643 7.74C35.4643 8.45333 35.221 9.11667 34.7343 9.73C34.2476 10.3367 33.6276 10.93 32.8743 11.51H35.5743V12.9H30.5543V11.63Z" fill="#C2CFD7"/>
<path d="M3.90641 21.384V24.744C3.90641 25.08 3.98907 25.3387 4.15441 25.52C4.31974 25.7013 4.56241 25.792 4.88241 25.792C5.20241 25.792 5.44774 25.7013 5.61841 25.52C5.78907 25.3387 5.87441 25.08 5.87441 24.744V21.384H7.24241V24.736C7.24241 25.2373 7.13574 25.6613 6.92241 26.008C6.70907 26.3547 6.42107 26.616 6.05841 26.792C5.70107 26.968 5.30107 27.056 4.85841 27.056C4.41574 27.056 4.01841 26.9707 3.66641 26.8C3.31974 26.624 3.04507 26.3627 2.84241 26.016C2.63974 25.664 2.53841 25.2373 2.53841 24.736V21.384H3.90641ZM10.923 22.488C11.4457 22.488 11.8617 22.6587 12.171 23C12.4857 23.336 12.643 23.8 12.643 24.392V27H11.283V24.576C11.283 24.2773 11.2057 24.0453 11.051 23.88C10.8964 23.7147 10.6884 23.632 10.427 23.632C10.1657 23.632 9.9577 23.7147 9.80303 23.88C9.64836 24.0453 9.57103 24.2773 9.57103 24.576V27H8.20303V22.536H9.57103V23.128C9.7097 22.9307 9.89636 22.776 10.131 22.664C10.3657 22.5467 10.6297 22.488 10.923 22.488ZM15.2897 22.472C15.6043 22.472 15.879 22.536 16.1137 22.664C16.3537 22.792 16.5377 22.96 16.6657 23.168V22.536H18.0337V26.992C18.0337 27.4027 17.951 27.7733 17.7857 28.104C17.6257 28.44 17.3777 28.7067 17.0417 28.904C16.711 29.1013 16.2977 29.2 15.8017 29.2C15.1403 29.2 14.6043 29.0427 14.1937 28.728C13.783 28.4187 13.5483 27.9973 13.4897 27.464H14.8417C14.8843 27.6347 14.9857 27.768 15.1457 27.864C15.3057 27.9653 15.503 28.016 15.7377 28.016C16.0203 28.016 16.2443 27.9333 16.4097 27.768C16.5803 27.608 16.6657 27.3493 16.6657 26.992V26.36C16.5323 26.568 16.3483 26.7387 16.1137 26.872C15.879 27 15.6043 27.064 15.2897 27.064C14.9217 27.064 14.5883 26.9707 14.2897 26.784C13.991 26.592 13.7537 26.3227 13.5777 25.976C13.407 25.624 13.3217 25.2187 13.3217 24.76C13.3217 24.3013 13.407 23.8987 13.5777 23.552C13.7537 23.2053 13.991 22.9387 14.2897 22.752C14.5883 22.5653 14.9217 22.472 15.2897 22.472ZM16.6657 24.768C16.6657 24.4267 16.5697 24.1573 16.3777 23.96C16.191 23.7627 15.9617 23.664 15.6897 23.664C15.4177 23.664 15.1857 23.7627 14.9937 23.96C14.807 24.152 14.7137 24.4187 14.7137 24.76C14.7137 25.1013 14.807 25.3733 14.9937 25.576C15.1857 25.7733 15.4177 25.872 15.6897 25.872C15.9617 25.872 16.191 25.7733 16.3777 25.576C16.5697 25.3787 16.6657 25.1093 16.6657 24.768ZM20.7193 22.472C21.034 22.472 21.3087 22.536 21.5433 22.664C21.7833 22.792 21.9673 22.96 22.0953 23.168V22.536H23.4633V26.992C23.4633 27.4027 23.3807 27.7733 23.2153 28.104C23.0553 28.44 22.8073 28.7067 22.4713 28.904C22.1407 29.1013 21.7273 29.2 21.2313 29.2C20.57 29.2 20.034 29.0427 19.6233 28.728C19.2127 28.4187 18.978 27.9973 18.9193 27.464H20.2713C20.314 27.6347 20.4153 27.768 20.5753 27.864C20.7353 27.9653 20.9327 28.016 21.1673 28.016C21.45 28.016 21.674 27.9333 21.8393 27.768C22.01 27.608 22.0953 27.3493 22.0953 26.992V26.36C21.962 26.568 21.778 26.7387 21.5433 26.872C21.3087 27 21.034 27.064 20.7193 27.064C20.3513 27.064 20.018 26.9707 19.7193 26.784C19.4207 26.592 19.1833 26.3227 19.0073 25.976C18.8367 25.624 18.7513 25.2187 18.7513 24.76C18.7513 24.3013 18.8367 23.8987 19.0073 23.552C19.1833 23.2053 19.4207 22.9387 19.7193 22.752C20.018 22.5653 20.3513 22.472 20.7193 22.472ZM22.0953 24.768C22.0953 24.4267 21.9993 24.1573 21.8073 23.96C21.6207 23.7627 21.3913 23.664 21.1193 23.664C20.8473 23.664 20.6153 23.7627 20.4233 23.96C20.2367 24.152 20.1433 24.4187 20.1433 24.76C20.1433 25.1013 20.2367 25.3733 20.4233 25.576C20.6153 25.7733 20.8473 25.872 21.1193 25.872C21.3913 25.872 21.6207 25.7733 21.8073 25.576C21.9993 25.3787 22.0953 25.1093 22.0953 24.768ZM24.181 24.76C24.181 24.3013 24.2664 23.8987 24.437 23.552C24.613 23.2053 24.8504 22.9387 25.149 22.752C25.4477 22.5653 25.781 22.472 26.149 22.472C26.4637 22.472 26.7384 22.536 26.973 22.664C27.213 22.792 27.397 22.96 27.525 23.168V22.536H28.893V27H27.525V26.368C27.3917 26.576 27.205 26.744 26.965 26.872C26.7304 27 26.4557 27.064 26.141 27.064C25.7784 27.064 25.4477 26.9707 25.149 26.784C24.8504 26.592 24.613 26.3227 24.437 25.976C24.2664 25.624 24.181 25.2187 24.181 24.76ZM27.525 24.768C27.525 24.4267 27.429 24.1573 27.237 23.96C27.0504 23.7627 26.821 23.664 26.549 23.664C26.277 23.664 26.045 23.7627 25.853 23.96C25.6664 24.152 25.573 24.4187 25.573 24.76C25.573 25.1013 25.6664 25.3733 25.853 25.576C26.045 25.7733 26.277 25.872 26.549 25.872C26.821 25.872 27.0504 25.7733 27.237 25.576C27.429 25.3787 27.525 25.1093 27.525 24.768ZM32.6267 22.488C33.1387 22.488 33.5494 22.6587 33.8587 23C34.1681 23.336 34.3227 23.8 34.3227 24.392V27H32.9627V24.576C32.9627 24.2773 32.8854 24.0453 32.7307 23.88C32.5761 23.7147 32.3681 23.632 32.1067 23.632C31.8454 23.632 31.6374 23.7147 31.4827 23.88C31.3281 24.0453 31.2507 24.2773 31.2507 24.576V27H29.8827V21.08H31.2507V23.136C31.3894 22.9387 31.5787 22.7813 31.8187 22.664C32.0587 22.5467 32.3281 22.488 32.6267 22.488ZM40.3687 24.12C40.694 24.1893 40.9553 24.352 41.1527 24.608C41.35 24.8587 41.4487 25.1467 41.4487 25.472C41.4487 25.9413 41.2833 26.3147 40.9527 26.592C40.6273 26.864 40.1713 27 39.5847 27H36.9687V21.384H39.4967C40.0673 21.384 40.5127 21.5147 40.8327 21.776C41.158 22.0373 41.3207 22.392 41.3207 22.84C41.3207 23.1707 41.2327 23.4453 41.0567 23.664C40.886 23.8827 40.6567 24.0347 40.3687 24.12ZM38.3367 23.656H39.2327C39.4567 23.656 39.6273 23.608 39.7447 23.512C39.8673 23.4107 39.9287 23.264 39.9287 23.072C39.9287 22.88 39.8673 22.7333 39.7447 22.632C39.6273 22.5307 39.4567 22.48 39.2327 22.48H38.3367V23.656ZM39.3447 25.896C39.574 25.896 39.75 25.8453 39.8727 25.744C40.0007 25.6373 40.0647 25.4853 40.0647 25.288C40.0647 25.0907 39.998 24.936 39.8647 24.824C39.7367 24.712 39.558 24.656 39.3287 24.656H38.3367V25.896H39.3447ZM46.4501 24.696C46.4501 24.824 46.4421 24.9573 46.4261 25.096H43.3301C43.3514 25.3733 43.4394 25.5867 43.5941 25.736C43.7541 25.88 43.9488 25.952 44.1781 25.952C44.5194 25.952 44.7568 25.808 44.8901 25.52H46.3461C46.2714 25.8133 46.1354 26.0773 45.9381 26.312C45.7461 26.5467 45.5034 26.7307 45.2101 26.864C44.9168 26.9973 44.5888 27.064 44.2261 27.064C43.7888 27.064 43.3994 26.9707 43.0581 26.784C42.7168 26.5973 42.4501 26.3307 42.2581 25.984C42.0661 25.6373 41.9701 25.232 41.9701 24.768C41.9701 24.304 42.0634 23.8987 42.2501 23.552C42.4421 23.2053 42.7088 22.9387 43.0501 22.752C43.3914 22.5653 43.7834 22.472 44.2261 22.472C44.6581 22.472 45.0421 22.5627 45.3781 22.744C45.7141 22.9253 45.9754 23.184 46.1621 23.52C46.3541 23.856 46.4501 24.248 46.4501 24.696ZM45.0501 24.336C45.0501 24.1013 44.9701 23.9147 44.8101 23.776C44.6501 23.6373 44.4501 23.568 44.2101 23.568C43.9808 23.568 43.7861 23.6347 43.6261 23.768C43.4714 23.9013 43.3754 24.0907 43.3381 24.336H45.0501ZM48.5398 23.28C48.6998 23.0347 48.8998 22.8427 49.1398 22.704C49.3798 22.56 49.6464 22.488 49.9398 22.488V23.936H49.5638C49.2224 23.936 48.9664 24.0107 48.7958 24.16C48.6251 24.304 48.5398 24.56 48.5398 24.928V27H47.1718V22.536H48.5398V23.28ZM53.3217 27L51.9617 25.128V27H50.5937V21.08H51.9617V24.352L53.3137 22.536H55.0017L53.1457 24.776L55.0177 27H53.3217ZM55.267 24.76C55.267 24.3013 55.3523 23.8987 55.523 23.552C55.699 23.2053 55.9363 22.9387 56.235 22.752C56.5336 22.5653 56.867 22.472 57.235 22.472C57.5496 22.472 57.8243 22.536 58.059 22.664C58.299 22.792 58.483 22.96 58.611 23.168V22.536H59.979V27H58.611V26.368C58.4776 26.576 58.291 26.744 58.051 26.872C57.8163 27 57.5416 27.064 57.227 27.064C56.8643 27.064 56.5336 26.9707 56.235 26.784C55.9363 26.592 55.699 26.3227 55.523 25.976C55.3523 25.624 55.267 25.2187 55.267 24.76ZM58.611 24.768C58.611 24.4267 58.515 24.1573 58.323 23.96C58.1363 23.7627 57.907 23.664 57.635 23.664C57.363 23.664 57.131 23.7627 56.939 23.96C56.7523 24.152 56.659 24.4187 56.659 24.76C56.659 25.1013 56.7523 25.3733 56.939 25.576C57.131 25.7733 57.363 25.872 57.635 25.872C57.907 25.872 58.1363 25.7733 58.323 25.576C58.515 25.3787 58.611 25.1093 58.611 24.768ZM62.7847 27.064C62.3953 27.064 62.0487 26.9973 61.7447 26.864C61.4407 26.7307 61.2007 26.5493 61.0247 26.32C60.8487 26.0853 60.75 25.824 60.7287 25.536H62.0807C62.0967 25.6907 62.1687 25.816 62.2967 25.912C62.4247 26.008 62.582 26.056 62.7687 26.056C62.9393 26.056 63.07 26.024 63.1607 25.96C63.2567 25.8907 63.3047 25.8027 63.3047 25.696C63.3047 25.568 63.238 25.4747 63.1047 25.416C62.9713 25.352 62.7553 25.2827 62.4567 25.208C62.1367 25.1333 61.87 25.056 61.6567 24.976C61.4433 24.8907 61.2593 24.76 61.1047 24.584C60.95 24.4027 60.8727 24.16 60.8727 23.856C60.8727 23.6 60.942 23.368 61.0807 23.16C61.2247 22.9467 61.4327 22.7787 61.7047 22.656C61.982 22.5333 62.31 22.472 62.6887 22.472C63.2487 22.472 63.6887 22.6107 64.0087 22.888C64.334 23.1653 64.5207 23.5333 64.5687 23.992H63.3047C63.2833 23.8373 63.214 23.7147 63.0967 23.624C62.9847 23.5333 62.8353 23.488 62.6487 23.488C62.4887 23.488 62.366 23.52 62.2807 23.584C62.1953 23.6427 62.1527 23.7253 62.1527 23.832C62.1527 23.96 62.2193 24.056 62.3527 24.12C62.4913 24.184 62.7047 24.248 62.9927 24.312C63.3233 24.3973 63.5927 24.4827 63.8007 24.568C64.0087 24.648 64.19 24.7813 64.3447 24.968C64.5047 25.1493 64.5873 25.3947 64.5927 25.704C64.5927 25.9653 64.518 26.2 64.3687 26.408C64.2247 26.6107 64.014 26.7707 63.7367 26.888C63.4647 27.0053 63.1473 27.064 62.7847 27.064Z" fill="#323232"/>
</svg>
