<svg width="46" height="40" viewBox="0 0 46 40" fill="none" xmlns="http://www.w3.org/2000/svg">
<path d="M32.2534 9C32.2534 13.711 28.5695 17.5 24.0616 17.5C19.5537 17.5 15.8698 13.711 15.8698 9C15.8698 4.28901 19.5537 0.5 24.0616 0.5C28.5695 0.5 32.2534 4.28901 32.2534 9Z" fill="#FCFBFE" stroke="#C2CFD7"/>
<path d="M21.6743 7.76C21.701 7.04667 21.9343 6.49667 22.3743 6.11C22.8143 5.72333 23.411 5.53 24.1643 5.53C24.6643 5.53 25.091 5.61667 25.4443 5.79C25.8043 5.96333 26.0743 6.2 26.2543 6.5C26.441 6.8 26.5343 7.13667 26.5343 7.51C26.5343 7.95 26.4243 8.31 26.2043 8.59C25.9843 8.86333 25.7276 9.05 25.4343 9.15V9.19C25.8143 9.31667 26.1143 9.52667 26.3343 9.82C26.5543 10.1133 26.6643 10.49 26.6643 10.95C26.6643 11.3633 26.5676 11.73 26.3743 12.05C26.1876 12.3633 25.911 12.61 25.5443 12.79C25.1843 12.97 24.7543 13.06 24.2543 13.06C23.4543 13.06 22.8143 12.8633 22.3343 12.47C21.861 12.0767 21.611 11.4833 21.5843 10.69H23.2443C23.251 10.9833 23.3343 11.2167 23.4943 11.39C23.6543 11.5567 23.8876 11.64 24.1943 11.64C24.4543 11.64 24.6543 11.5667 24.7943 11.42C24.941 11.2667 25.0143 11.0667 25.0143 10.82C25.0143 10.5 24.911 10.27 24.7043 10.13C24.5043 9.98333 24.181 9.91 23.7343 9.91H23.4143V8.52H23.7343C24.0743 8.52 24.3476 8.46333 24.5543 8.35C24.7676 8.23 24.8743 8.02 24.8743 7.72C24.8743 7.48 24.8076 7.29333 24.6743 7.16C24.541 7.02667 24.3576 6.96 24.1243 6.96C23.871 6.96 23.681 7.03667 23.5543 7.19C23.4343 7.34333 23.3643 7.53333 23.3443 7.76H21.6743Z" fill="#C2CFD7"/>
<path d="M5.06116 21.192C5.06116 21.5173 4.98649 21.816 4.83716 22.088C4.68782 22.3547 4.45849 22.5707 4.14916 22.736C3.83982 22.9013 3.45582 22.984 2.99716 22.984H2.14916V25H0.781156V19.384H2.99716C3.44516 19.384 3.82382 19.4613 4.13316 19.616C4.44249 19.7707 4.67449 19.984 4.82916 20.256C4.98382 20.528 5.06116 20.84 5.06116 21.192ZM2.89316 21.896C3.15449 21.896 3.34916 21.8347 3.47716 21.712C3.60516 21.5893 3.66916 21.416 3.66916 21.192C3.66916 20.968 3.60516 20.7947 3.47716 20.672C3.34916 20.5493 3.15449 20.488 2.89316 20.488H2.14916V21.896H2.89316ZM9.98134 22.696C9.98134 22.824 9.97334 22.9573 9.95734 23.096H6.86134C6.88268 23.3733 6.97068 23.5867 7.12534 23.736C7.28534 23.88 7.48001 23.952 7.70934 23.952C8.05068 23.952 8.28801 23.808 8.42134 23.52H9.87734C9.80268 23.8133 9.66668 24.0773 9.46934 24.312C9.27734 24.5467 9.03468 24.7307 8.74134 24.864C8.44801 24.9973 8.12001 25.064 7.75734 25.064C7.32001 25.064 6.93068 24.9707 6.58934 24.784C6.24801 24.5973 5.98134 24.3307 5.78934 23.984C5.59734 23.6373 5.50134 23.232 5.50134 22.768C5.50134 22.304 5.59468 21.8987 5.78134 21.552C5.97334 21.2053 6.24001 20.9387 6.58134 20.752C6.92268 20.5653 7.31468 20.472 7.75734 20.472C8.18934 20.472 8.57334 20.5627 8.90934 20.744C9.24534 20.9253 9.50668 21.184 9.69334 21.52C9.88534 21.856 9.98134 22.248 9.98134 22.696ZM8.58134 22.336C8.58134 22.1013 8.50134 21.9147 8.34134 21.776C8.18134 21.6373 7.98134 21.568 7.74134 21.568C7.51201 21.568 7.31734 21.6347 7.15734 21.768C7.00268 21.9013 6.90668 22.0907 6.86934 22.336H8.58134ZM13.423 20.488C13.9457 20.488 14.3617 20.6587 14.671 21C14.9857 21.336 15.143 21.8 15.143 22.392V25H13.783V22.576C13.783 22.2773 13.7057 22.0453 13.551 21.88C13.3964 21.7147 13.1884 21.632 12.927 21.632C12.6657 21.632 12.4577 21.7147 12.303 21.88C12.1484 22.0453 12.071 22.2773 12.071 22.576V25H10.703V20.536H12.071V21.128C12.2097 20.9307 12.3964 20.776 12.631 20.664C12.8657 20.5467 13.1297 20.488 13.423 20.488ZM17.7897 20.472C18.1043 20.472 18.379 20.536 18.6137 20.664C18.8537 20.792 19.0377 20.96 19.1657 21.168V20.536H20.5337V24.992C20.5337 25.4027 20.451 25.7733 20.2857 26.104C20.1257 26.44 19.8777 26.7067 19.5417 26.904C19.211 27.1013 18.7977 27.2 18.3017 27.2C17.6403 27.2 17.1043 27.0427 16.6937 26.728C16.283 26.4187 16.0483 25.9973 15.9897 25.464H17.3417C17.3843 25.6347 17.4857 25.768 17.6457 25.864C17.8057 25.9653 18.003 26.016 18.2377 26.016C18.5203 26.016 18.7443 25.9333 18.9097 25.768C19.0803 25.608 19.1657 25.3493 19.1657 24.992V24.36C19.0323 24.568 18.8483 24.7387 18.6137 24.872C18.379 25 18.1043 25.064 17.7897 25.064C17.4217 25.064 17.0883 24.9707 16.7897 24.784C16.491 24.592 16.2537 24.3227 16.0777 23.976C15.907 23.624 15.8217 23.2187 15.8217 22.76C15.8217 22.3013 15.907 21.8987 16.0777 21.552C16.2537 21.2053 16.491 20.9387 16.7897 20.752C17.0883 20.5653 17.4217 20.472 17.7897 20.472ZM19.1657 22.768C19.1657 22.4267 19.0697 22.1573 18.8777 21.96C18.691 21.7627 18.4617 21.664 18.1897 21.664C17.9177 21.664 17.6857 21.7627 17.4937 21.96C17.307 22.152 17.2137 22.4187 17.2137 22.76C17.2137 23.1013 17.307 23.3733 17.4937 23.576C17.6857 23.7733 17.9177 23.872 18.1897 23.872C18.4617 23.872 18.691 23.7733 18.8777 23.576C19.0697 23.3787 19.1657 23.1093 19.1657 22.768ZM21.2513 22.76C21.2513 22.3013 21.3367 21.8987 21.5073 21.552C21.6833 21.2053 21.9207 20.9387 22.2193 20.752C22.518 20.5653 22.8513 20.472 23.2193 20.472C23.534 20.472 23.8087 20.536 24.0433 20.664C24.2833 20.792 24.4673 20.96 24.5953 21.168V20.536H25.9633V25H24.5953V24.368C24.462 24.576 24.2753 24.744 24.0353 24.872C23.8007 25 23.526 25.064 23.2113 25.064C22.8487 25.064 22.518 24.9707 22.2193 24.784C21.9207 24.592 21.6833 24.3227 21.5073 23.976C21.3367 23.624 21.2513 23.2187 21.2513 22.76ZM24.5953 22.768C24.5953 22.4267 24.4993 22.1573 24.3073 21.96C24.1207 21.7627 23.8913 21.664 23.6193 21.664C23.3473 21.664 23.1153 21.7627 22.9233 21.96C22.7367 22.152 22.6433 22.4187 22.6433 22.76C22.6433 23.1013 22.7367 23.3733 22.9233 23.576C23.1153 23.7733 23.3473 23.872 23.6193 23.872C23.8913 23.872 24.1207 23.7733 24.3073 23.576C24.4993 23.3787 24.5953 23.1093 24.5953 22.768ZM27.633 20.072C27.393 20.072 27.1957 20.0027 27.041 19.864C26.8917 19.72 26.817 19.544 26.817 19.336C26.817 19.1227 26.8917 18.9467 27.041 18.808C27.1957 18.664 27.393 18.592 27.633 18.592C27.8677 18.592 28.0597 18.664 28.209 18.808C28.3637 18.9467 28.441 19.1227 28.441 19.336C28.441 19.544 28.3637 19.72 28.209 19.864C28.0597 20.0027 27.8677 20.072 27.633 20.072ZM28.321 25.576C28.321 26.1253 28.1824 26.52 27.905 26.76C27.6277 27.0053 27.241 27.128 26.745 27.128H26.209V25.968H26.537C26.6864 25.968 26.793 25.9387 26.857 25.88C26.921 25.8213 26.953 25.7253 26.953 25.592V20.536H28.321V25.576ZM33.7126 20.536V25H32.3446V24.392C32.2059 24.5893 32.0166 24.7493 31.7766 24.872C31.5419 24.9893 31.2806 25.048 30.9926 25.048C30.6513 25.048 30.3499 24.9733 30.0886 24.824C29.8273 24.6693 29.6246 24.448 29.4806 24.16C29.3366 23.872 29.2646 23.5333 29.2646 23.144V20.536H30.6246V22.96C30.6246 23.2587 30.7019 23.4907 30.8566 23.656C31.0113 23.8213 31.2193 23.904 31.4806 23.904C31.7473 23.904 31.9579 23.8213 32.1126 23.656C32.2673 23.4907 32.3446 23.2587 32.3446 22.96V20.536H33.7126ZM34.4232 22.76C34.4232 22.3013 34.5086 21.8987 34.6792 21.552C34.8552 21.2053 35.0926 20.9387 35.3912 20.752C35.6899 20.5653 36.0232 20.472 36.3912 20.472C36.7059 20.472 36.9806 20.536 37.2152 20.664C37.4552 20.792 37.6392 20.96 37.7672 21.168V20.536H39.1352V25H37.7672V24.368C37.6339 24.576 37.4472 24.744 37.2072 24.872C36.9726 25 36.6979 25.064 36.3832 25.064C36.0206 25.064 35.6899 24.9707 35.3912 24.784C35.0926 24.592 34.8552 24.3227 34.6792 23.976C34.5086 23.624 34.4232 23.2187 34.4232 22.76ZM37.7672 22.768C37.7672 22.4267 37.6712 22.1573 37.4792 21.96C37.2926 21.7627 37.0632 21.664 36.7912 21.664C36.5192 21.664 36.2872 21.7627 36.0952 21.96C35.9086 22.152 35.8152 22.4187 35.8152 22.76C35.8152 23.1013 35.9086 23.3733 36.0952 23.576C36.2872 23.7733 36.5192 23.872 36.7912 23.872C37.0632 23.872 37.2926 23.7733 37.4792 23.576C37.6712 23.3787 37.7672 23.1093 37.7672 22.768ZM42.8449 20.488C43.3676 20.488 43.7836 20.6587 44.0929 21C44.4076 21.336 44.5649 21.8 44.5649 22.392V25H43.2049V22.576C43.2049 22.2773 43.1276 22.0453 42.9729 21.88C42.8182 21.7147 42.6102 21.632 42.3489 21.632C42.0876 21.632 41.8796 21.7147 41.7249 21.88C41.5702 22.0453 41.4929 22.2773 41.4929 22.576V25H40.1249V20.536H41.4929V21.128C41.6316 20.9307 41.8182 20.776 42.0529 20.664C42.2876 20.5467 42.5516 20.488 42.8449 20.488ZM15.6226 34.12C15.9479 34.1893 16.2092 34.352 16.4066 34.608C16.6039 34.8587 16.7026 35.1467 16.7026 35.472C16.7026 35.9413 16.5372 36.3147 16.2066 36.592C15.8812 36.864 15.4252 37 14.8386 37H12.2226V31.384H14.7506C15.3212 31.384 15.7666 31.5147 16.0866 31.776C16.4119 32.0373 16.5746 32.392 16.5746 32.84C16.5746 33.1707 16.4866 33.4453 16.3106 33.664C16.1399 33.8827 15.9106 34.0347 15.6226 34.12ZM13.5906 33.656H14.4866C14.7106 33.656 14.8812 33.608 14.9986 33.512C15.1212 33.4107 15.1826 33.264 15.1826 33.072C15.1826 32.88 15.1212 32.7333 14.9986 32.632C14.8812 32.5307 14.7106 32.48 14.4866 32.48H13.5906V33.656ZM14.5986 35.896C14.8279 35.896 15.0039 35.8453 15.1266 35.744C15.2546 35.6373 15.3186 35.4853 15.3186 35.288C15.3186 35.0907 15.2519 34.936 15.1186 34.824C14.9906 34.712 14.8119 34.656 14.5826 34.656H13.5906V35.896H14.5986ZM18.184 32.072C17.944 32.072 17.7467 32.0027 17.592 31.864C17.4427 31.72 17.368 31.544 17.368 31.336C17.368 31.1227 17.4427 30.9467 17.592 30.808C17.7467 30.664 17.944 30.592 18.184 30.592C18.4187 30.592 18.6107 30.664 18.76 30.808C18.9147 30.9467 18.992 31.1227 18.992 31.336C18.992 31.544 18.9147 31.72 18.76 31.864C18.6107 32.0027 18.4187 32.072 18.184 32.072ZM18.864 32.536V37H17.496V32.536H18.864ZM19.5834 34.76C19.5834 34.3013 19.6687 33.8987 19.8394 33.552C20.0154 33.2053 20.2527 32.9387 20.5514 32.752C20.85 32.5653 21.1834 32.472 21.5514 32.472C21.866 32.472 22.1407 32.536 22.3754 32.664C22.6154 32.792 22.7994 32.96 22.9274 33.168V32.536H24.2954V37H22.9274V36.368C22.794 36.576 22.6074 36.744 22.3674 36.872C22.1327 37 21.858 37.064 21.5434 37.064C21.1807 37.064 20.85 36.9707 20.5514 36.784C20.2527 36.592 20.0154 36.3227 19.8394 35.976C19.6687 35.624 19.5834 35.2187 19.5834 34.76ZM22.9274 34.768C22.9274 34.4267 22.8314 34.1573 22.6394 33.96C22.4527 33.7627 22.2234 33.664 21.9514 33.664C21.6794 33.664 21.4474 33.7627 21.2554 33.96C21.0687 34.152 20.9754 34.4187 20.9754 34.76C20.9754 35.1013 21.0687 35.3733 21.2554 35.576C21.4474 35.7733 21.6794 35.872 21.9514 35.872C22.2234 35.872 22.4527 35.7733 22.6394 35.576C22.8314 35.3787 22.9274 35.1093 22.9274 34.768ZM29.8451 32.536L27.0451 39.12H25.5731L26.5971 36.848L24.7811 32.536H26.3091L27.3411 35.328L28.3651 32.536H29.8451ZM30.0678 34.76C30.0678 34.3013 30.1531 33.8987 30.3238 33.552C30.4998 33.2053 30.7371 32.9387 31.0358 32.752C31.3344 32.5653 31.6678 32.472 32.0358 32.472C32.3504 32.472 32.6251 32.536 32.8598 32.664C33.0998 32.792 33.2838 32.96 33.4118 33.168V32.536H34.7798V37H33.4118V36.368C33.2784 36.576 33.0918 36.744 32.8518 36.872C32.6171 37 32.3424 37.064 32.0278 37.064C31.6651 37.064 31.3344 36.9707 31.0358 36.784C30.7371 36.592 30.4998 36.3227 30.3238 35.976C30.1531 35.624 30.0678 35.2187 30.0678 34.76ZM33.4118 34.768C33.4118 34.4267 33.3158 34.1573 33.1238 33.96C32.9371 33.7627 32.7078 33.664 32.4358 33.664C32.1638 33.664 31.9318 33.7627 31.7398 33.96C31.5531 34.152 31.4598 34.4187 31.4598 34.76C31.4598 35.1013 31.5531 35.3733 31.7398 35.576C31.9318 35.7733 32.1638 35.872 32.4358 35.872C32.7078 35.872 32.9371 35.7733 33.1238 35.576C33.3158 35.3787 33.4118 35.1093 33.4118 34.768Z" fill="#323232"/>
</svg>
