<svg width="18" height="18" viewBox="0 0 18 18" fill="none" xmlns="http://www.w3.org/2000/svg">
<path d="M17.2534 9C17.2534 13.711 13.5695 17.5 9.06159 17.5C4.55368 17.5 0.869812 13.711 0.869812 9C0.869812 4.28901 4.55368 0.5 9.06159 0.5C13.5695 0.5 17.2534 4.28901 17.2534 9Z" fill="#FCFBFE" stroke="#C2CFD7"/>
<path d="M6.67431 7.76C6.70097 7.04667 6.93431 6.49667 7.37431 6.11C7.81431 5.72333 8.41097 5.53 9.16431 5.53C9.66431 5.53 10.091 5.61667 10.4443 5.79C10.8043 5.96333 11.0743 6.2 11.2543 6.5C11.441 6.8 11.5343 7.13667 11.5343 7.51C11.5343 7.95 11.4243 8.31 11.2043 8.59C10.9843 8.86333 10.7276 9.05 10.4343 9.15V9.19C10.8143 9.31667 11.1143 9.52667 11.3343 9.82C11.5543 10.1133 11.6643 10.49 11.6643 10.95C11.6643 11.3633 11.5676 11.73 11.3743 12.05C11.1876 12.3633 10.911 12.61 10.5443 12.79C10.1843 12.97 9.75431 13.06 9.25431 13.06C8.45431 13.06 7.81431 12.8633 7.33431 12.47C6.86097 12.0767 6.61097 11.4833 6.58431 10.69H8.24431C8.25097 10.9833 8.33431 11.2167 8.49431 11.39C8.65431 11.5567 8.88764 11.64 9.19431 11.64C9.45431 11.64 9.65431 11.5667 9.79431 11.42C9.94097 11.2667 10.0143 11.0667 10.0143 10.82C10.0143 10.5 9.91097 10.27 9.70431 10.13C9.50431 9.98333 9.18097 9.91 8.73431 9.91H8.41431V8.52H8.73431C9.07431 8.52 9.34764 8.46333 9.55431 8.35C9.76764 8.23 9.87431 8.02 9.87431 7.72C9.87431 7.48 9.80764 7.29333 9.67431 7.16C9.54097 7.02667 9.35764 6.96 9.12431 6.96C8.87097 6.96 8.68097 7.03667 8.55431 7.19C8.43431 7.34333 8.36431 7.53333 8.34431 7.76H6.67431Z" fill="#C2CFD7"/>
</svg>
