<svg width="18" height="18" viewBox="0 0 18 18" fill="none" xmlns="http://www.w3.org/2000/svg">
<path d="M17.2534 9C17.2534 13.711 13.5695 17.5 9.06159 17.5C4.55368 17.5 0.869812 13.711 0.869812 9C0.869812 4.28901 4.55368 0.5 9.06159 0.5C13.5695 0.5 17.2534 4.28901 17.2534 9Z" fill="#FCFBFE" stroke="#C2CFD7"/>
<path d="M6.55431 11.63C6.78097 11.45 6.88431 11.3667 6.86431 11.38C7.51764 10.84 8.03097 10.3967 8.40431 10.05C8.78431 9.70333 9.10431 9.34 9.36431 8.96C9.62431 8.58 9.75431 8.21 9.75431 7.85C9.75431 7.57667 9.69097 7.36333 9.56431 7.21C9.43764 7.05667 9.24764 6.98 8.99431 6.98C8.74097 6.98 8.54097 7.07667 8.39431 7.27C8.25431 7.45667 8.18431 7.72333 8.18431 8.07H6.53431C6.54764 7.50333 6.66764 7.03 6.89431 6.65C7.12764 6.27 7.43097 5.99 7.80431 5.81C8.18431 5.63 8.60431 5.54 9.06431 5.54C9.85764 5.54 10.4543 5.74333 10.8543 6.15C11.261 6.55667 11.4643 7.08667 11.4643 7.74C11.4643 8.45333 11.221 9.11667 10.7343 9.73C10.2476 10.3367 9.62764 10.93 8.87431 11.51H11.5743V12.9H6.55431V11.63Z" fill="#C2CFD7"/>
</svg>
