<svg width="19" height="18" viewBox="0 0 19 18" fill="none" xmlns="http://www.w3.org/2000/svg">
<ellipse cx="9.38355" cy="9" rx="8.69178" ry="9" fill="#0267B2"/>
<path d="M6.51 7.76C6.53667 7.04667 6.77 6.49667 7.21 6.11C7.65 5.72333 8.24667 5.53 9 5.53C9.5 5.53 9.92667 5.61667 10.28 5.79C10.64 5.96333 10.91 6.2 11.09 6.5C11.2767 6.8 11.37 7.13667 11.37 7.51C11.37 7.95 11.26 8.31 11.04 8.59C10.82 8.86333 10.5633 9.05 10.27 9.15V9.19C10.65 9.31667 10.95 9.52667 11.17 9.82C11.39 10.1133 11.5 10.49 11.5 10.95C11.5 11.3633 11.4033 11.73 11.21 12.05C11.0233 12.3633 10.7467 12.61 10.38 12.79C10.02 12.97 9.59 13.06 9.09 13.06C8.29 13.06 7.65 12.8633 7.17 12.47C6.69667 12.0767 6.44667 11.4833 6.42 10.69H8.08C8.08667 10.9833 8.17 11.2167 8.33 11.39C8.49 11.5567 8.72333 11.64 9.03 11.64C9.29 11.64 9.49 11.5667 9.63 11.42C9.77667 11.2667 9.85 11.0667 9.85 10.82C9.85 10.5 9.74667 10.27 9.54 10.13C9.34 9.98333 9.01667 9.91 8.57 9.91H8.25V8.52H8.57C8.91 8.52 9.18333 8.46333 9.39 8.35C9.60333 8.23 9.71 8.02 9.71 7.72C9.71 7.48 9.64333 7.29333 9.51 7.16C9.37667 7.02667 9.19333 6.96 8.96 6.96C8.70667 6.96 8.51667 7.03667 8.39 7.19C8.27 7.34333 8.2 7.53333 8.18 7.76H6.51Z" fill="white"/>
</svg>
