<svg width="19" height="18" viewBox="0 0 19 18" fill="none" xmlns="http://www.w3.org/2000/svg">
<ellipse cx="9.38355" cy="9" rx="8.69178" ry="9" fill="#0267B2"/>
<path d="M6.39 11.63C6.61667 11.45 6.72 11.3667 6.7 11.38C7.35333 10.84 7.86667 10.3967 8.24 10.05C8.62 9.70333 8.94 9.34 9.2 8.96C9.46 8.58 9.59 8.21 9.59 7.85C9.59 7.57667 9.52667 7.36333 9.4 7.21C9.27333 7.05667 9.08333 6.98 8.83 6.98C8.57667 6.98 8.37667 7.07667 8.23 7.27C8.09 7.45667 8.02 7.72333 8.02 8.07H6.37C6.38333 7.50333 6.50333 7.03 6.73 6.65C6.96333 6.27 7.26667 5.99 7.64 5.81C8.02 5.63 8.44 5.54 8.9 5.54C9.69333 5.54 10.29 5.74333 10.69 6.15C11.0967 6.55667 11.3 7.08667 11.3 7.74C11.3 8.45333 11.0567 9.11667 10.57 9.73C10.0833 10.3367 9.46333 10.93 8.71 11.51H11.41V12.9H6.39V11.63Z" fill="white"/>
</svg>
