<svg width="39" height="34" viewBox="0 0 39 34" fill="none" xmlns="http://www.w3.org/2000/svg">
<circle cx="18" cy="9" r="9" fill="#0267B2"/>
<path d="M16.27 7.29V5.7H19.04V13H17.26V7.29H16.27Z" fill="white"/>
<path d="M2.33 22.98V30H0.62V22.98H2.33ZM5.83922 30.08C5.35255 30.08 4.91922 29.9967 4.53922 29.83C4.15922 29.6633 3.85922 29.4367 3.63922 29.15C3.41922 28.8567 3.29589 28.53 3.26922 28.17H4.95922C4.97922 28.3633 5.06922 28.52 5.22922 28.64C5.38922 28.76 5.58589 28.82 5.81922 28.82C6.03255 28.82 6.19589 28.78 6.30922 28.7C6.42922 28.6133 6.48922 28.5033 6.48922 28.37C6.48922 28.21 6.40589 28.0933 6.23922 28.02C6.07255 27.94 5.80255 27.8533 5.42922 27.76C5.02922 27.6667 4.69589 27.57 4.42922 27.47C4.16255 27.3633 3.93255 27.2 3.73922 26.98C3.54589 26.7533 3.44922 26.45 3.44922 26.07C3.44922 25.75 3.53589 25.46 3.70922 25.2C3.88922 24.9333 4.14922 24.7233 4.48922 24.57C4.83589 24.4167 5.24589 24.34 5.71922 24.34C6.41922 24.34 6.96922 24.5133 7.36922 24.86C7.77589 25.2067 8.00922 25.6667 8.06922 26.24H6.48922C6.46255 26.0467 6.37589 25.8933 6.22922 25.78C6.08922 25.6667 5.90255 25.61 5.66922 25.61C5.46922 25.61 5.31589 25.65 5.20922 25.73C5.10255 25.8033 5.04922 25.9067 5.04922 26.04C5.04922 26.2 5.13255 26.32 5.29922 26.4C5.47255 26.48 5.73922 26.56 6.09922 26.64C6.51255 26.7467 6.84922 26.8533 7.10922 26.96C7.36922 27.06 7.59589 27.2267 7.78922 27.46C7.98922 27.6867 8.09255 27.9933 8.09922 28.38C8.09922 28.7067 8.00589 29 7.81922 29.26C7.63922 29.5133 7.37589 29.7133 7.02922 29.86C6.68922 30.0067 6.29255 30.08 5.83922 30.08ZM10.0054 23.84C9.70539 23.84 9.45872 23.7533 9.26539 23.58C9.07872 23.4 8.98539 23.18 8.98539 22.92C8.98539 22.6533 9.07872 22.4333 9.26539 22.26C9.45872 22.08 9.70539 21.99 10.0054 21.99C10.2987 21.99 10.5387 22.08 10.7254 22.26C10.9187 22.4333 11.0154 22.6533 11.0154 22.92C11.0154 23.18 10.9187 23.4 10.7254 23.58C10.5387 23.7533 10.2987 23.84 10.0054 23.84ZM10.8554 24.42V30H9.14539V24.42H10.8554ZM17.0138 25.84H16.0938V30H14.3838V25.84H13.7638V24.42H14.3838V24.26C14.3838 23.5733 14.5804 23.0533 14.9738 22.7C15.3671 22.34 15.9438 22.16 16.7038 22.16C16.8304 22.16 16.9238 22.1633 16.9838 22.17V23.62C16.6571 23.6 16.4271 23.6467 16.2938 23.76C16.1604 23.8733 16.0938 24.0767 16.0938 24.37V24.42H17.0138V25.84ZM20.3573 30.08C19.8106 30.08 19.3173 29.9633 18.8773 29.73C18.4439 29.4967 18.1006 29.1633 17.8473 28.73C17.6006 28.2967 17.4773 27.79 17.4773 27.21C17.4773 26.6367 17.6039 26.1333 17.8573 25.7C18.1106 25.26 18.4573 24.9233 18.8973 24.69C19.3373 24.4567 19.8306 24.34 20.3773 24.34C20.9239 24.34 21.4173 24.4567 21.8573 24.69C22.2973 24.9233 22.6439 25.26 22.8973 25.7C23.1506 26.1333 23.2773 26.6367 23.2773 27.21C23.2773 27.7833 23.1473 28.29 22.8873 28.73C22.6339 29.1633 22.2839 29.4967 21.8373 29.73C21.3973 29.9633 20.9039 30.08 20.3573 30.08ZM20.3573 28.6C20.6839 28.6 20.9606 28.48 21.1873 28.24C21.4206 28 21.5373 27.6567 21.5373 27.21C21.5373 26.7633 21.4239 26.42 21.1973 26.18C20.9773 25.94 20.7039 25.82 20.3773 25.82C20.0439 25.82 19.7673 25.94 19.5473 26.18C19.3273 26.4133 19.2173 26.7567 19.2173 27.21C19.2173 27.6567 19.3239 28 19.5373 28.24C19.7573 28.48 20.0306 28.6 20.3573 28.6ZM25.8945 25.35C26.0945 25.0433 26.3445 24.8033 26.6445 24.63C26.9445 24.45 27.2778 24.36 27.6445 24.36V26.17H27.1745C26.7478 26.17 26.4278 26.2633 26.2145 26.45C26.0011 26.63 25.8945 26.95 25.8945 27.41V30H24.1845V24.42H25.8945V25.35ZM35.5818 24.36C36.2751 24.36 36.8251 24.57 37.2318 24.99C37.6451 25.41 37.8518 25.9933 37.8518 26.74V30H36.1518V26.97C36.1518 26.61 36.0551 26.3333 35.8618 26.14C35.6751 25.94 35.4151 25.84 35.0818 25.84C34.7485 25.84 34.4851 25.94 34.2918 26.14C34.1051 26.3333 34.0118 26.61 34.0118 26.97V30H32.3118V26.97C32.3118 26.61 32.2151 26.3333 32.0218 26.14C31.8351 25.94 31.5751 25.84 31.2418 25.84C30.9085 25.84 30.6451 25.94 30.4518 26.14C30.2651 26.3333 30.1718 26.61 30.1718 26.97V30H28.4618V24.42H30.1718V25.12C30.3451 24.8867 30.5718 24.7033 30.8518 24.57C31.1318 24.43 31.4485 24.36 31.8018 24.36C32.2218 24.36 32.5951 24.45 32.9218 24.63C33.2551 24.81 33.5151 25.0667 33.7018 25.4C33.8951 25.0933 34.1585 24.8433 34.4918 24.65C34.8251 24.4567 35.1885 24.36 35.5818 24.36Z" fill="black"/>
</svg>
