<svg width="32" height="40" viewBox="0 0 32 40" fill="none" xmlns="http://www.w3.org/2000/svg">
<path d="M5.13672 36.2334V37H1.58203V36.2334H5.13672ZM1.76758 29.8906V37H0.825195V29.8906H1.76758ZM5.83984 34.417V34.3047C5.83984 33.9238 5.89518 33.5706 6.00586 33.2451C6.11654 32.9163 6.27604 32.6315 6.48438 32.3906C6.69271 32.1465 6.94499 31.9577 7.24121 31.8242C7.53743 31.6875 7.86947 31.6191 8.2373 31.6191C8.6084 31.6191 8.94206 31.6875 9.23828 31.8242C9.53776 31.9577 9.79167 32.1465 10 32.3906C10.2116 32.6315 10.3727 32.9163 10.4834 33.2451C10.5941 33.5706 10.6494 33.9238 10.6494 34.3047V34.417C10.6494 34.7979 10.5941 35.151 10.4834 35.4766C10.3727 35.8021 10.2116 36.0869 10 36.3311C9.79167 36.5719 9.53939 36.7607 9.24316 36.8975C8.9502 37.0309 8.61816 37.0977 8.24707 37.0977C7.87598 37.0977 7.54232 37.0309 7.24609 36.8975C6.94987 36.7607 6.69596 36.5719 6.48438 36.3311C6.27604 36.0869 6.11654 35.8021 6.00586 35.4766C5.89518 35.151 5.83984 34.7979 5.83984 34.417ZM6.74316 34.3047V34.417C6.74316 34.6807 6.77409 34.9297 6.83594 35.1641C6.89779 35.3952 6.99056 35.6003 7.11426 35.7793C7.24121 35.9583 7.39909 36.0999 7.58789 36.2041C7.77669 36.305 7.99642 36.3555 8.24707 36.3555C8.49447 36.3555 8.71094 36.305 8.89648 36.2041C9.08529 36.0999 9.24154 35.9583 9.36523 35.7793C9.48893 35.6003 9.58171 35.3952 9.64355 35.1641C9.70866 34.9297 9.74121 34.6807 9.74121 34.417V34.3047C9.74121 34.0443 9.70866 33.7985 9.64355 33.5674C9.58171 33.333 9.4873 33.1263 9.36035 32.9473C9.23665 32.765 9.0804 32.6217 8.8916 32.5176C8.70605 32.4134 8.48796 32.3613 8.2373 32.3613C7.98991 32.3613 7.77181 32.4134 7.58301 32.5176C7.39746 32.6217 7.24121 32.765 7.11426 32.9473C6.99056 33.1263 6.89779 33.333 6.83594 33.5674C6.77409 33.7985 6.74316 34.0443 6.74316 34.3047ZM15.2051 31.7168H16.0254V36.8877C16.0254 37.3532 15.931 37.7503 15.7422 38.0791C15.5534 38.4079 15.2897 38.6569 14.9512 38.8262C14.6159 38.9987 14.2285 39.085 13.7891 39.085C13.6068 39.085 13.3919 39.0557 13.1445 38.9971C12.9004 38.9417 12.6595 38.8457 12.4219 38.709C12.1875 38.5755 11.9906 38.3949 11.8311 38.167L12.3047 37.6299C12.526 37.8968 12.7572 38.0824 12.998 38.1865C13.2422 38.2907 13.4831 38.3428 13.7207 38.3428C14.0072 38.3428 14.2546 38.2891 14.4629 38.1816C14.6712 38.0742 14.8324 37.9147 14.9463 37.7031C15.0635 37.4948 15.1221 37.2376 15.1221 36.9316V32.8789L15.2051 31.7168ZM11.5674 34.417V34.3145C11.5674 33.9108 11.6146 33.5446 11.709 33.2158C11.8066 32.8838 11.945 32.599 12.124 32.3613C12.3063 32.1237 12.526 31.9414 12.7832 31.8145C13.0404 31.6842 13.3301 31.6191 13.6523 31.6191C13.9844 31.6191 14.2741 31.6777 14.5215 31.7949C14.7721 31.9089 14.9837 32.0765 15.1562 32.2979C15.332 32.516 15.4704 32.7796 15.5713 33.0889C15.6722 33.3981 15.7422 33.748 15.7812 34.1387V34.5879C15.7454 34.9753 15.6755 35.3236 15.5713 35.6328C15.4704 35.9421 15.332 36.2057 15.1562 36.4238C14.9837 36.6419 14.7721 36.8096 14.5215 36.9268C14.2708 37.0407 13.9779 37.0977 13.6426 37.0977C13.3268 37.0977 13.0404 37.0309 12.7832 36.8975C12.5293 36.764 12.3112 36.5768 12.1289 36.3359C11.9466 36.0951 11.8066 35.8118 11.709 35.4863C11.6146 35.1576 11.5674 34.8011 11.5674 34.417ZM12.4707 34.3145V34.417C12.4707 34.6807 12.4967 34.9281 12.5488 35.1592C12.6042 35.3903 12.6872 35.5938 12.7979 35.7695C12.9118 35.9453 13.0566 36.0837 13.2324 36.1846C13.4082 36.2822 13.6182 36.3311 13.8623 36.3311C14.1618 36.3311 14.4092 36.2676 14.6045 36.1406C14.7998 36.0137 14.9544 35.846 15.0684 35.6377C15.1855 35.4294 15.2767 35.2031 15.3418 34.959V33.7822C15.306 33.6032 15.2507 33.4307 15.1758 33.2646C15.1042 33.0954 15.0098 32.9456 14.8926 32.8154C14.7786 32.682 14.637 32.5762 14.4678 32.498C14.2985 32.4199 14.0999 32.3809 13.8721 32.3809C13.6247 32.3809 13.4115 32.4329 13.2324 32.5371C13.0566 32.638 12.9118 32.778 12.7979 32.957C12.6872 33.1328 12.6042 33.3379 12.5488 33.5723C12.4967 33.8034 12.4707 34.0508 12.4707 34.3145ZM17.1582 34.417V34.3047C17.1582 33.9238 17.2135 33.5706 17.3242 33.2451C17.4349 32.9163 17.5944 32.6315 17.8027 32.3906C18.0111 32.1465 18.2633 31.9577 18.5596 31.8242C18.8558 31.6875 19.1878 31.6191 19.5557 31.6191C19.9268 31.6191 20.2604 31.6875 20.5566 31.8242C20.8561 31.9577 21.11 32.1465 21.3184 32.3906C21.5299 32.6315 21.6911 32.9163 21.8018 33.2451C21.9124 33.5706 21.9678 33.9238 21.9678 34.3047V34.417C21.9678 34.7979 21.9124 35.151 21.8018 35.4766C21.6911 35.8021 21.5299 36.0869 21.3184 36.3311C21.11 36.5719 20.8577 36.7607 20.5615 36.8975C20.2686 37.0309 19.9365 37.0977 19.5654 37.0977C19.1943 37.0977 18.8607 37.0309 18.5645 36.8975C18.2682 36.7607 18.0143 36.5719 17.8027 36.3311C17.5944 36.0869 17.4349 35.8021 17.3242 35.4766C17.2135 35.151 17.1582 34.7979 17.1582 34.417ZM18.0615 34.3047V34.417C18.0615 34.6807 18.0924 34.9297 18.1543 35.1641C18.2161 35.3952 18.3089 35.6003 18.4326 35.7793C18.5596 35.9583 18.7174 36.0999 18.9062 36.2041C19.0951 36.305 19.3148 36.3555 19.5654 36.3555C19.8128 36.3555 20.0293 36.305 20.2148 36.2041C20.4036 36.0999 20.5599 35.9583 20.6836 35.7793C20.8073 35.6003 20.9001 35.3952 20.9619 35.1641C21.027 34.9297 21.0596 34.6807 21.0596 34.417V34.3047C21.0596 34.0443 21.027 33.7985 20.9619 33.5674C20.9001 33.333 20.8057 33.1263 20.6787 32.9473C20.555 32.765 20.3988 32.6217 20.21 32.5176C20.0244 32.4134 19.8063 32.3613 19.5557 32.3613C19.3083 32.3613 19.0902 32.4134 18.9014 32.5176C18.7158 32.6217 18.5596 32.765 18.4326 32.9473C18.3089 33.1263 18.2161 33.333 18.1543 33.5674C18.0924 33.7985 18.0615 34.0443 18.0615 34.3047ZM26.333 35.7793V31.7168H27.2412V37H26.377L26.333 35.7793ZM26.5039 34.666L26.8799 34.6562C26.8799 35.0078 26.8424 35.3333 26.7676 35.6328C26.696 35.929 26.5788 36.1862 26.416 36.4043C26.2533 36.6224 26.04 36.7933 25.7764 36.917C25.5127 37.0374 25.1921 37.0977 24.8145 37.0977C24.5573 37.0977 24.3213 37.0602 24.1064 36.9854C23.8949 36.9105 23.7126 36.7949 23.5596 36.6387C23.4066 36.4824 23.2878 36.279 23.2031 36.0283C23.1217 35.7777 23.0811 35.4766 23.0811 35.125V31.7168H23.9844V35.1348C23.9844 35.3724 24.0104 35.5693 24.0625 35.7256C24.1178 35.8786 24.1911 36.0007 24.2822 36.0918C24.3766 36.1797 24.4808 36.2415 24.5947 36.2773C24.7119 36.3132 24.8324 36.3311 24.9561 36.3311C25.3402 36.3311 25.6445 36.2578 25.8691 36.1113C26.0938 35.9616 26.2549 35.7614 26.3525 35.5107C26.4535 35.2568 26.5039 34.9753 26.5039 34.666ZM30.8301 31.7168V32.4102H27.9736V31.7168H30.8301ZM28.9404 30.4326H29.8438V35.6914C29.8438 35.8704 29.8714 36.0055 29.9268 36.0967C29.9821 36.1878 30.0537 36.248 30.1416 36.2773C30.2295 36.3066 30.3239 36.3213 30.4248 36.3213C30.4997 36.3213 30.5778 36.3148 30.6592 36.3018C30.7438 36.2855 30.8073 36.2725 30.8496 36.2627L30.8545 37C30.7829 37.0228 30.6885 37.0439 30.5713 37.0635C30.4574 37.0863 30.319 37.0977 30.1562 37.0977C29.9349 37.0977 29.7314 37.0537 29.5459 36.9658C29.3604 36.8779 29.2122 36.7314 29.1016 36.5264C28.9941 36.318 28.9404 36.0381 28.9404 35.6865V30.4326Z" fill="#434343"/>
<path d="M7.625 23.625C7.00625 23.625 6.47675 23.4049 6.0365 22.9646C5.59625 22.5244 5.37575 21.9945 5.375 21.375V5.625C5.375 5.00625 5.5955 4.47675 6.0365 4.0365C6.4775 3.59625 7.007 3.37575 7.625 3.375H15.5V5.625H7.625V21.375H15.5V23.625H7.625ZM20 19.125L18.4531 17.4938L21.3219 14.625H12.125V12.375H21.3219L18.4531 9.50625L20 7.875L25.625 13.5L20 19.125Z" fill="#434343"/>
</svg>
