<svg width="13" height="13" viewBox="0 0 13 13" fill="none" xmlns="http://www.w3.org/2000/svg">
<circle cx="6.5" cy="6.5" r="6.5" fill="#DF4A4C"/>
<path d="M7.544 4.072L7.36 7.888H6.024L5.84 4.072H7.544ZM6.696 10.064C6.41867 10.064 6.19467 9.98933 6.024 9.84C5.85867 9.68533 5.776 9.49067 5.776 9.256C5.776 9.02133 5.85867 8.82667 6.024 8.672C6.19467 8.51733 6.41867 8.44 6.696 8.44C6.968 8.44 7.18667 8.51733 7.352 8.672C7.52267 8.82667 7.608 9.02133 7.608 9.256C7.608 9.48533 7.52267 9.67733 7.352 9.832C7.18667 9.98667 6.968 10.064 6.696 10.064Z" fill="white"/>
</svg>
