<svg width="18" height="18" viewBox="0 0 18 18" fill="none" xmlns="http://www.w3.org/2000/svg">
<path d="M17.3972 9C17.3972 13.711 13.7134 17.5 9.20545 17.5C4.69754 17.5 1.01367 13.711 1.01367 9C1.01367 4.28901 4.69754 0.5 9.20545 0.5C13.7134 0.5 17.3972 4.28901 17.3972 9Z" fill="#FCFBFE" stroke="#0267B2"/>
<path d="M6.84203 10.63C7.06869 10.45 7.17203 10.3667 7.15203 10.38C7.80536 9.84 8.31869 9.39667 8.69203 9.05C9.07203 8.70333 9.39203 8.34 9.65203 7.96C9.91203 7.58 10.042 7.21 10.042 6.85C10.042 6.57667 9.97869 6.36333 9.85203 6.21C9.72536 6.05667 9.53536 5.98 9.28203 5.98C9.02869 5.98 8.82869 6.07667 8.68203 6.27C8.54203 6.45667 8.47203 6.72333 8.47203 7.07H6.82203C6.83536 6.50333 6.95536 6.03 7.18203 5.65C7.41536 5.27 7.71869 4.99 8.09203 4.81C8.47203 4.63 8.89203 4.54 9.35203 4.54C10.1454 4.54 10.742 4.74333 11.142 5.15C11.5487 5.55667 11.752 6.08667 11.752 6.74C11.752 7.45333 11.5087 8.11667 11.022 8.73C10.5354 9.33667 9.91536 9.93 9.16203 10.51H11.862V11.9H6.84203V10.63Z" fill="#0267B2"/>
</svg>
