<svg width="18" height="18" viewBox="0 0 18 18" fill="none" xmlns="http://www.w3.org/2000/svg">
<path d="M17.3972 9C17.3972 13.711 13.7134 17.5 9.20545 17.5C4.69754 17.5 1.01367 13.711 1.01367 9C1.01367 4.28901 4.69754 0.5 9.20545 0.5C13.7134 0.5 17.3972 4.28901 17.3972 9Z" fill="#FCFBFE" stroke="#0267B2"/>
<path d="M6.96203 7.76C6.98869 7.04667 7.22203 6.49667 7.66203 6.11C8.10203 5.72333 8.69869 5.53 9.45203 5.53C9.95203 5.53 10.3787 5.61667 10.732 5.79C11.092 5.96333 11.362 6.2 11.542 6.5C11.7287 6.8 11.822 7.13667 11.822 7.51C11.822 7.95 11.712 8.31 11.492 8.59C11.272 8.86333 11.0154 9.05 10.722 9.15V9.19C11.102 9.31667 11.402 9.52667 11.622 9.82C11.842 10.1133 11.952 10.49 11.952 10.95C11.952 11.3633 11.8554 11.73 11.662 12.05C11.4754 12.3633 11.1987 12.61 10.832 12.79C10.472 12.97 10.042 13.06 9.54203 13.06C8.74203 13.06 8.10203 12.8633 7.62203 12.47C7.14869 12.0767 6.89869 11.4833 6.87203 10.69H8.53203C8.53869 10.9833 8.62203 11.2167 8.78203 11.39C8.94203 11.5567 9.17536 11.64 9.48203 11.64C9.74203 11.64 9.94203 11.5667 10.082 11.42C10.2287 11.2667 10.302 11.0667 10.302 10.82C10.302 10.5 10.1987 10.27 9.99203 10.13C9.79203 9.98333 9.46869 9.91 9.02203 9.91H8.70203V8.52H9.02203C9.36203 8.52 9.63536 8.46333 9.84203 8.35C10.0554 8.23 10.162 8.02 10.162 7.72C10.162 7.48 10.0954 7.29333 9.96203 7.16C9.82869 7.02667 9.64536 6.96 9.41203 6.96C9.15869 6.96 8.96869 7.03667 8.84203 7.19C8.72203 7.34333 8.65203 7.53333 8.63203 7.76H6.96203Z" fill="#0267B2"/>
</svg>
