<svg width="88" height="34" viewBox="0 0 88 34" fill="none" xmlns="http://www.w3.org/2000/svg">
<circle cx="46" cy="9" r="8.5" fill="#FCFBFE" stroke="#C2CFD7"/>
<path d="M43.51 7.76C43.5367 7.04667 43.77 6.49667 44.21 6.11C44.65 5.72333 45.2467 5.53 46 5.53C46.5 5.53 46.9267 5.61667 47.28 5.79C47.64 5.96333 47.91 6.2 48.09 6.5C48.2767 6.8 48.37 7.13667 48.37 7.51C48.37 7.95 48.26 8.31 48.04 8.59C47.82 8.86333 47.5633 9.05 47.27 9.15V9.19C47.65 9.31667 47.95 9.52667 48.17 9.82C48.39 10.1133 48.5 10.49 48.5 10.95C48.5 11.3633 48.4033 11.73 48.21 12.05C48.0233 12.3633 47.7467 12.61 47.38 12.79C47.02 12.97 46.59 13.06 46.09 13.06C45.29 13.06 44.65 12.8633 44.17 12.47C43.6967 12.0767 43.4467 11.4833 43.42 10.69H45.08C45.0867 10.9833 45.17 11.2167 45.33 11.39C45.49 11.5567 45.7233 11.64 46.03 11.64C46.29 11.64 46.49 11.5667 46.63 11.42C46.7767 11.2667 46.85 11.0667 46.85 10.82C46.85 10.5 46.7467 10.27 46.54 10.13C46.34 9.98333 46.0167 9.91 45.57 9.91H45.25V8.52H45.57C45.91 8.52 46.1833 8.46333 46.39 8.35C46.6033 8.23 46.71 8.02 46.71 7.72C46.71 7.48 46.6433 7.29333 46.51 7.16C46.3767 7.02667 46.1933 6.96 45.96 6.96C45.7067 6.96 45.5167 7.03667 45.39 7.19C45.27 7.34333 45.2 7.53333 45.18 7.76H43.51Z" fill="#C2CFD7"/>
<path d="M5.97 25.24C5.97 25.6467 5.87667 26.02 5.69 26.36C5.50333 26.6933 5.21667 26.9633 4.83 27.17C4.44333 27.3767 3.96333 27.48 3.39 27.48H2.33V30H0.62V22.98H3.39C3.95 22.98 4.42333 23.0767 4.81 23.27C5.19667 23.4633 5.48667 23.73 5.68 24.07C5.87333 24.41 5.97 24.8 5.97 25.24ZM3.26 26.12C3.58667 26.12 3.83 26.0433 3.99 25.89C4.15 25.7367 4.23 25.52 4.23 25.24C4.23 24.96 4.15 24.7433 3.99 24.59C3.83 24.4367 3.58667 24.36 3.26 24.36H2.33V26.12H3.26ZM12.1202 27.12C12.1202 27.28 12.1102 27.4467 12.0902 27.62H8.22023C8.2469 27.9667 8.3569 28.2333 8.55023 28.42C8.75023 28.6 8.99357 28.69 9.28023 28.69C9.7069 28.69 10.0036 28.51 10.1702 28.15H11.9902C11.8969 28.5167 11.7269 28.8467 11.4802 29.14C11.2402 29.4333 10.9369 29.6633 10.5702 29.83C10.2036 29.9967 9.79357 30.08 9.34023 30.08C8.79357 30.08 8.3069 29.9633 7.88023 29.73C7.45357 29.4967 7.12023 29.1633 6.88023 28.73C6.64023 28.2967 6.52023 27.79 6.52023 27.21C6.52023 26.63 6.6369 26.1233 6.87023 25.69C7.11023 25.2567 7.44357 24.9233 7.87023 24.69C8.2969 24.4567 8.7869 24.34 9.34023 24.34C9.88023 24.34 10.3602 24.4533 10.7802 24.68C11.2002 24.9067 11.5269 25.23 11.7602 25.65C12.0002 26.07 12.1202 26.56 12.1202 27.12ZM10.3702 26.67C10.3702 26.3767 10.2702 26.1433 10.0702 25.97C9.87023 25.7967 9.62023 25.71 9.32023 25.71C9.03357 25.71 8.79023 25.7933 8.59023 25.96C8.3969 26.1267 8.2769 26.3633 8.23023 26.67H10.3702ZM16.4223 24.36C17.0757 24.36 17.5957 24.5733 17.9823 25C18.3757 25.42 18.5723 26 18.5723 26.74V30H16.8723V26.97C16.8723 26.5967 16.7757 26.3067 16.5823 26.1C16.389 25.8933 16.129 25.79 15.8023 25.79C15.4757 25.79 15.2157 25.8933 15.0223 26.1C14.829 26.3067 14.7323 26.5967 14.7323 26.97V30H13.0223V24.42H14.7323V25.16C14.9057 24.9133 15.139 24.72 15.4323 24.58C15.7257 24.4333 16.0557 24.36 16.4223 24.36ZM21.8806 24.34C22.274 24.34 22.6173 24.42 22.9106 24.58C23.2106 24.74 23.4406 24.95 23.6006 25.21V24.42H25.3106V29.99C25.3106 30.5033 25.2073 30.9667 25.0006 31.38C24.8006 31.8 24.4906 32.1333 24.0706 32.38C23.6573 32.6267 23.1406 32.75 22.5206 32.75C21.694 32.75 21.024 32.5533 20.5106 32.16C19.9973 31.7733 19.704 31.2467 19.6306 30.58H21.3206C21.374 30.7933 21.5006 30.96 21.7006 31.08C21.9006 31.2067 22.1473 31.27 22.4406 31.27C22.794 31.27 23.074 31.1667 23.2806 30.96C23.494 30.76 23.6006 30.4367 23.6006 29.99V29.2C23.434 29.46 23.204 29.6733 22.9106 29.84C22.6173 30 22.274 30.08 21.8806 30.08C21.4206 30.08 21.004 29.9633 20.6306 29.73C20.2573 29.49 19.9606 29.1533 19.7406 28.72C19.5273 28.28 19.4206 27.7733 19.4206 27.2C19.4206 26.6267 19.5273 26.1233 19.7406 25.69C19.9606 25.2567 20.2573 24.9233 20.6306 24.69C21.004 24.4567 21.4206 24.34 21.8806 24.34ZM23.6006 27.21C23.6006 26.7833 23.4806 26.4467 23.2406 26.2C23.0073 25.9533 22.7206 25.83 22.3806 25.83C22.0406 25.83 21.7506 25.9533 21.5106 26.2C21.2773 26.44 21.1606 26.7733 21.1606 27.2C21.1606 27.6267 21.2773 27.9667 21.5106 28.22C21.7506 28.4667 22.0406 28.59 22.3806 28.59C22.7206 28.59 23.0073 28.4667 23.2406 28.22C23.4806 27.9733 23.6006 27.6367 23.6006 27.21ZM26.2077 27.2C26.2077 26.6267 26.3144 26.1233 26.5277 25.69C26.7477 25.2567 27.0444 24.9233 27.4177 24.69C27.7911 24.4567 28.2077 24.34 28.6677 24.34C29.0611 24.34 29.4044 24.42 29.6977 24.58C29.9977 24.74 30.2277 24.95 30.3877 25.21V24.42H32.0977V30H30.3877V29.21C30.2211 29.47 29.9877 29.68 29.6877 29.84C29.3944 30 29.0511 30.08 28.6577 30.08C28.2044 30.08 27.7911 29.9633 27.4177 29.73C27.0444 29.49 26.7477 29.1533 26.5277 28.72C26.3144 28.28 26.2077 27.7733 26.2077 27.2ZM30.3877 27.21C30.3877 26.7833 30.2677 26.4467 30.0277 26.2C29.7944 25.9533 29.5077 25.83 29.1677 25.83C28.8277 25.83 28.5377 25.9533 28.2977 26.2C28.0644 26.44 27.9477 26.7733 27.9477 27.2C27.9477 27.6267 28.0644 27.9667 28.2977 28.22C28.5377 28.4667 28.8277 28.59 29.1677 28.59C29.5077 28.59 29.7944 28.4667 30.0277 28.22C30.2677 27.9733 30.3877 27.6367 30.3877 27.21ZM34.1848 23.84C33.8848 23.84 33.6382 23.7533 33.4448 23.58C33.2582 23.4 33.1648 23.18 33.1648 22.92C33.1648 22.6533 33.2582 22.4333 33.4448 22.26C33.6382 22.08 33.8848 21.99 34.1848 21.99C34.4782 21.99 34.7182 22.08 34.9048 22.26C35.0982 22.4333 35.1948 22.6533 35.1948 22.92C35.1948 23.18 35.0982 23.4 34.9048 23.58C34.7182 23.7533 34.4782 23.84 34.1848 23.84ZM35.0448 30.72C35.0448 31.4067 34.8715 31.9 34.5248 32.2C34.1782 32.5067 33.6948 32.66 33.0748 32.66H32.4048V31.21H32.8148C33.0015 31.21 33.1348 31.1733 33.2148 31.1C33.2948 31.0267 33.3348 30.9067 33.3348 30.74V24.42H35.0448V30.72ZM41.7843 24.42V30H40.0743V29.24C39.901 29.4867 39.6643 29.6867 39.3643 29.84C39.071 29.9867 38.7443 30.06 38.3843 30.06C37.9576 30.06 37.581 29.9667 37.2543 29.78C36.9276 29.5867 36.6743 29.31 36.4943 28.95C36.3143 28.59 36.2243 28.1667 36.2243 27.68V24.42H37.9243V27.45C37.9243 27.8233 38.021 28.1133 38.2143 28.32C38.4076 28.5267 38.6676 28.63 38.9943 28.63C39.3276 28.63 39.591 28.5267 39.7843 28.32C39.9776 28.1133 40.0743 27.8233 40.0743 27.45V24.42H41.7843ZM42.6726 27.2C42.6726 26.6267 42.7792 26.1233 42.9926 25.69C43.2126 25.2567 43.5092 24.9233 43.8826 24.69C44.2559 24.4567 44.6726 24.34 45.1326 24.34C45.5259 24.34 45.8692 24.42 46.1626 24.58C46.4626 24.74 46.6926 24.95 46.8526 25.21V24.42H48.5626V30H46.8526V29.21C46.6859 29.47 46.4526 29.68 46.1526 29.84C45.8592 30 45.5159 30.08 45.1226 30.08C44.6692 30.08 44.2559 29.9633 43.8826 29.73C43.5092 29.49 43.2126 29.1533 42.9926 28.72C42.7792 28.28 42.6726 27.7733 42.6726 27.2ZM46.8526 27.21C46.8526 26.7833 46.7326 26.4467 46.4926 26.2C46.2592 25.9533 45.9726 25.83 45.6326 25.83C45.2926 25.83 45.0026 25.9533 44.7626 26.2C44.5292 26.44 44.4126 26.7733 44.4126 27.2C44.4126 27.6267 44.5292 27.9667 44.7626 28.22C45.0026 28.4667 45.2926 28.59 45.6326 28.59C45.9726 28.59 46.2592 28.4667 46.4926 28.22C46.7326 27.9733 46.8526 27.6367 46.8526 27.21ZM53.1997 24.36C53.853 24.36 54.373 24.5733 54.7597 25C55.153 25.42 55.3497 26 55.3497 26.74V30H53.6497V26.97C53.6497 26.5967 53.553 26.3067 53.3597 26.1C53.1664 25.8933 52.9064 25.79 52.5797 25.79C52.253 25.79 51.993 25.8933 51.7997 26.1C51.6064 26.3067 51.5097 26.5967 51.5097 26.97V30H49.7997V24.42H51.5097V25.16C51.683 24.9133 51.9164 24.72 52.2097 24.58C52.503 24.4333 52.833 24.36 53.1997 24.36ZM62.9071 26.4C63.3138 26.4867 63.6404 26.69 63.8871 27.01C64.1338 27.3233 64.2571 27.6833 64.2571 28.09C64.2571 28.6767 64.0504 29.1433 63.6371 29.49C63.2304 29.83 62.6604 30 61.9271 30H58.6571V22.98H61.8171C62.5304 22.98 63.0871 23.1433 63.4871 23.47C63.8938 23.7967 64.0971 24.24 64.0971 24.8C64.0971 25.2133 63.9871 25.5567 63.7671 25.83C63.5538 26.1033 63.2671 26.2933 62.9071 26.4ZM60.3671 25.82H61.4871C61.7671 25.82 61.9804 25.76 62.1271 25.64C62.2804 25.5133 62.3571 25.33 62.3571 25.09C62.3571 24.85 62.2804 24.6667 62.1271 24.54C61.9804 24.4133 61.7671 24.35 61.4871 24.35H60.3671V25.82ZM61.6271 28.62C61.9138 28.62 62.1338 28.5567 62.2871 28.43C62.4471 28.2967 62.5271 28.1067 62.5271 27.86C62.5271 27.6133 62.4438 27.42 62.2771 27.28C62.1171 27.14 61.8938 27.07 61.6071 27.07H60.3671V28.62H61.6271ZM66.1089 23.84C65.8089 23.84 65.5622 23.7533 65.3689 23.58C65.1822 23.4 65.0889 23.18 65.0889 22.92C65.0889 22.6533 65.1822 22.4333 65.3689 22.26C65.5622 22.08 65.8089 21.99 66.1089 21.99C66.4022 21.99 66.6422 22.08 66.8289 22.26C67.0222 22.4333 67.1189 22.6533 67.1189 22.92C67.1189 23.18 67.0222 23.4 66.8289 23.58C66.6422 23.7533 66.4022 23.84 66.1089 23.84ZM66.9589 24.42V30H65.2489V24.42H66.9589ZM67.8581 27.2C67.8581 26.6267 67.9648 26.1233 68.1781 25.69C68.3981 25.2567 68.6948 24.9233 69.0681 24.69C69.4415 24.4567 69.8581 24.34 70.3181 24.34C70.7115 24.34 71.0548 24.42 71.3481 24.58C71.6481 24.74 71.8781 24.95 72.0381 25.21V24.42H73.7481V30H72.0381V29.21C71.8715 29.47 71.6381 29.68 71.3381 29.84C71.0448 30 70.7015 30.08 70.3081 30.08C69.8548 30.08 69.4415 29.9633 69.0681 29.73C68.6948 29.49 68.3981 29.1533 68.1781 28.72C67.9648 28.28 67.8581 27.7733 67.8581 27.2ZM72.0381 27.21C72.0381 26.7833 71.9181 26.4467 71.6781 26.2C71.4448 25.9533 71.1581 25.83 70.8181 25.83C70.4781 25.83 70.1881 25.9533 69.9481 26.2C69.7148 26.44 69.5981 26.7733 69.5981 27.2C69.5981 27.6267 69.7148 27.9667 69.9481 28.22C70.1881 28.4667 70.4781 28.59 70.8181 28.59C71.1581 28.59 71.4448 28.4667 71.6781 28.22C71.9181 27.9733 72.0381 27.6367 72.0381 27.21ZM80.6852 24.42L77.1852 32.65H75.3452L76.6252 29.81L74.3552 24.42H76.2652L77.5552 27.91L78.8352 24.42H80.6852ZM80.9636 27.2C80.9636 26.6267 81.0703 26.1233 81.2836 25.69C81.5036 25.2567 81.8003 24.9233 82.1736 24.69C82.5469 24.4567 82.9636 24.34 83.4236 24.34C83.8169 24.34 84.1603 24.42 84.4536 24.58C84.7536 24.74 84.9836 24.95 85.1436 25.21V24.42H86.8536V30H85.1436V29.21C84.9769 29.47 84.7436 29.68 84.4436 29.84C84.1503 30 83.8069 30.08 83.4136 30.08C82.9603 30.08 82.5469 29.9633 82.1736 29.73C81.8003 29.49 81.5036 29.1533 81.2836 28.72C81.0703 28.28 80.9636 27.7733 80.9636 27.2ZM85.1436 27.21C85.1436 26.7833 85.0236 26.4467 84.7836 26.2C84.5503 25.9533 84.2636 25.83 83.9236 25.83C83.5836 25.83 83.2936 25.9533 83.0536 26.2C82.8203 26.44 82.7036 26.7733 82.7036 27.2C82.7036 27.6267 82.8203 27.9667 83.0536 28.22C83.2936 28.4667 83.5836 28.59 83.9236 28.59C84.2636 28.59 84.5503 28.4667 84.7836 28.22C85.0236 27.9733 85.1436 27.6367 85.1436 27.21Z" fill="#323232"/>
</svg>
