<svg width="282" height="41" viewBox="0 0 282 41" fill="none" xmlns="http://www.w3.org/2000/svg">
<line x1="28.9726" y1="9.5" x2="117.822" y2="9.5" stroke="#0267B2"/>
<path d="M149.692 9H238.541" stroke="#E1E4E7"/>
<ellipse cx="17.3836" cy="9" rx="8.69178" ry="9" fill="#0267B2"/>
<path d="M15.722 7.29V5.7H18.492V13H16.712V7.29H15.722Z" fill="white"/>
<path d="M1.864 22.384V28H0.496V22.384H1.864ZM4.67138 28.064C4.28204 28.064 3.93538 27.9973 3.63138 27.864C3.32738 27.7307 3.08738 27.5493 2.91138 27.32C2.73538 27.0853 2.63671 26.824 2.61538 26.536H3.96738C3.98338 26.6907 4.05538 26.816 4.18338 26.912C4.31138 27.008 4.46871 27.056 4.65538 27.056C4.82604 27.056 4.95671 27.024 5.04738 26.96C5.14338 26.8907 5.19138 26.8027 5.19138 26.696C5.19138 26.568 5.12471 26.4747 4.99138 26.416C4.85804 26.352 4.64204 26.2827 4.34338 26.208C4.02338 26.1333 3.75671 26.056 3.54338 25.976C3.33004 25.8907 3.14604 25.76 2.99138 25.584C2.83671 25.4027 2.75938 25.16 2.75938 24.856C2.75938 24.6 2.82871 24.368 2.96738 24.16C3.11138 23.9467 3.31938 23.7787 3.59138 23.656C3.86871 23.5333 4.19671 23.472 4.57538 23.472C5.13538 23.472 5.57538 23.6107 5.89538 23.888C6.22071 24.1653 6.40738 24.5333 6.45538 24.992H5.19138C5.17004 24.8373 5.10071 24.7147 4.98338 24.624C4.87138 24.5333 4.72204 24.488 4.53538 24.488C4.37538 24.488 4.25271 24.52 4.16738 24.584C4.08204 24.6427 4.03938 24.7253 4.03938 24.832C4.03938 24.96 4.10604 25.056 4.23938 25.12C4.37804 25.184 4.59138 25.248 4.87938 25.312C5.21004 25.3973 5.47938 25.4827 5.68738 25.568C5.89538 25.648 6.07671 25.7813 6.23138 25.968C6.39138 26.1493 6.47404 26.3947 6.47938 26.704C6.47938 26.9653 6.40471 27.2 6.25538 27.408C6.11138 27.6107 5.90071 27.7707 5.62338 27.888C5.35138 28.0053 5.03404 28.064 4.67138 28.064ZM8.00431 23.072C7.76431 23.072 7.56698 23.0027 7.41231 22.864C7.26298 22.72 7.18831 22.544 7.18831 22.336C7.18831 22.1227 7.26298 21.9467 7.41231 21.808C7.56698 21.664 7.76431 21.592 8.00431 21.592C8.23898 21.592 8.43098 21.664 8.58031 21.808C8.73498 21.9467 8.81231 22.1227 8.81231 22.336C8.81231 22.544 8.73498 22.72 8.58031 22.864C8.43098 23.0027 8.23898 23.072 8.00431 23.072ZM8.68431 23.536V28H7.31631V23.536H8.68431ZM13.611 24.672H12.875V28H11.507V24.672H11.011V23.536H11.507V23.408C11.507 22.8587 11.6643 22.4427 11.979 22.16C12.2937 21.872 12.755 21.728 13.363 21.728C13.4643 21.728 13.539 21.7307 13.587 21.736V22.896C13.3257 22.88 13.1417 22.9173 13.035 23.008C12.9283 23.0987 12.875 23.2613 12.875 23.496V23.536H13.611V24.672ZM16.2858 28.064C15.8485 28.064 15.4538 27.9707 15.1018 27.784C14.7551 27.5973 14.4805 27.3307 14.2778 26.984C14.0805 26.6373 13.9818 26.232 13.9818 25.768C13.9818 25.3093 14.0831 24.9067 14.2858 24.56C14.4885 24.208 14.7658 23.9387 15.1178 23.752C15.4698 23.5653 15.8645 23.472 16.3018 23.472C16.7391 23.472 17.1338 23.5653 17.4858 23.752C17.8378 23.9387 18.1151 24.208 18.3178 24.56C18.5205 24.9067 18.6218 25.3093 18.6218 25.768C18.6218 26.2267 18.5178 26.632 18.3098 26.984C18.1071 27.3307 17.8271 27.5973 17.4698 27.784C17.1178 27.9707 16.7231 28.064 16.2858 28.064ZM16.2858 26.88C16.5471 26.88 16.7685 26.784 16.9498 26.592C17.1365 26.4 17.2298 26.1253 17.2298 25.768C17.2298 25.4107 17.1391 25.136 16.9578 24.944C16.7818 24.752 16.5631 24.656 16.3018 24.656C16.0351 24.656 15.8138 24.752 15.6378 24.944C15.4618 25.1307 15.3738 25.4053 15.3738 25.768C15.3738 26.1253 15.4591 26.4 15.6298 26.592C15.8058 26.784 16.0245 26.88 16.2858 26.88ZM20.7156 24.28C20.8756 24.0347 21.0756 23.8427 21.3156 23.704C21.5556 23.56 21.8222 23.488 22.1156 23.488V24.936H21.7396C21.3982 24.936 21.1422 25.0107 20.9716 25.16C20.8009 25.304 20.7156 25.56 20.7156 25.928V28H19.3476V23.536H20.7156V24.28ZM28.4654 23.488C29.0201 23.488 29.4601 23.656 29.7854 23.992C30.1161 24.328 30.2814 24.7947 30.2814 25.392V28H28.9214V25.576C28.9214 25.288 28.8441 25.0667 28.6894 24.912C28.5401 24.752 28.3321 24.672 28.0654 24.672C27.7988 24.672 27.5881 24.752 27.4334 24.912C27.2841 25.0667 27.2094 25.288 27.2094 25.576V28H25.8494V25.576C25.8494 25.288 25.7721 25.0667 25.6174 24.912C25.4681 24.752 25.2601 24.672 24.9934 24.672C24.7268 24.672 24.5161 24.752 24.3614 24.912C24.2121 25.0667 24.1374 25.288 24.1374 25.576V28H22.7694V23.536H24.1374V24.096C24.2761 23.9093 24.4574 23.7627 24.6814 23.656C24.9054 23.544 25.1588 23.488 25.4414 23.488C25.7774 23.488 26.0761 23.56 26.3374 23.704C26.6041 23.848 26.8121 24.0533 26.9614 24.32C27.1161 24.0747 27.3268 23.8747 27.5934 23.72C27.8601 23.5653 28.1508 23.488 28.4654 23.488Z" fill="black"/>
<path d="M143.397 9C143.397 13.711 139.713 17.5 135.205 17.5C130.698 17.5 127.014 13.711 127.014 9C127.014 4.28901 130.698 0.5 135.205 0.5C139.713 0.5 143.397 4.28901 143.397 9Z" fill="#FCFBFE" stroke="#0267B2"/>
<path d="M132.698 10.63C132.925 10.45 133.028 10.3667 133.008 10.38C133.662 9.84 134.175 9.39667 134.548 9.05C134.928 8.70333 135.248 8.34 135.508 7.96C135.768 7.58 135.898 7.21 135.898 6.85C135.898 6.57667 135.835 6.36333 135.708 6.21C135.582 6.05667 135.392 5.98 135.138 5.98C134.885 5.98 134.685 6.07667 134.538 6.27C134.398 6.45667 134.328 6.72333 134.328 7.07H132.678C132.692 6.50333 132.812 6.03 133.038 5.65C133.272 5.27 133.575 4.99 133.948 4.81C134.328 4.63 134.748 4.54 135.208 4.54C136.002 4.54 136.598 4.74333 136.998 5.15C137.405 5.55667 137.608 6.08667 137.608 6.74C137.608 7.45333 137.365 8.11667 136.878 8.73C136.392 9.33667 135.772 9.93 135.018 10.51H137.718V11.9H132.698V10.63Z" fill="#0267B2"/>
<path d="M107.061 22.384V25.744C107.061 26.08 107.143 26.3387 107.309 26.52C107.474 26.7013 107.717 26.792 108.037 26.792C108.357 26.792 108.602 26.7013 108.773 26.52C108.943 26.3387 109.029 26.08 109.029 25.744V22.384H110.397V25.736C110.397 26.2373 110.29 26.6613 110.077 27.008C109.863 27.3547 109.575 27.616 109.213 27.792C108.855 27.968 108.455 28.056 108.013 28.056C107.57 28.056 107.173 27.9707 106.821 27.8C106.474 27.624 106.199 27.3627 105.997 27.016C105.794 26.664 105.693 26.2373 105.693 25.736V22.384H107.061ZM114.077 23.488C114.6 23.488 115.016 23.6587 115.325 24C115.64 24.336 115.797 24.8 115.797 25.392V28H114.437V25.576C114.437 25.2773 114.36 25.0453 114.205 24.88C114.05 24.7147 113.842 24.632 113.581 24.632C113.32 24.632 113.112 24.7147 112.957 24.88C112.802 25.0453 112.725 25.2773 112.725 25.576V28H111.357V23.536H112.725V24.128C112.864 23.9307 113.05 23.776 113.285 23.664C113.52 23.5467 113.784 23.488 114.077 23.488ZM118.444 23.472C118.758 23.472 119.033 23.536 119.268 23.664C119.508 23.792 119.692 23.96 119.82 24.168V23.536H121.188V27.992C121.188 28.4027 121.105 28.7733 120.94 29.104C120.78 29.44 120.532 29.7067 120.196 29.904C119.865 30.1013 119.452 30.2 118.956 30.2C118.294 30.2 117.758 30.0427 117.348 29.728C116.937 29.4187 116.702 28.9973 116.644 28.464H117.996C118.038 28.6347 118.14 28.768 118.3 28.864C118.46 28.9653 118.657 29.016 118.892 29.016C119.174 29.016 119.398 28.9333 119.564 28.768C119.734 28.608 119.82 28.3493 119.82 27.992V27.36C119.686 27.568 119.502 27.7387 119.268 27.872C119.033 28 118.758 28.064 118.444 28.064C118.076 28.064 117.742 27.9707 117.444 27.784C117.145 27.592 116.908 27.3227 116.732 26.976C116.561 26.624 116.476 26.2187 116.476 25.76C116.476 25.3013 116.561 24.8987 116.732 24.552C116.908 24.2053 117.145 23.9387 117.444 23.752C117.742 23.5653 118.076 23.472 118.444 23.472ZM119.82 25.768C119.82 25.4267 119.724 25.1573 119.532 24.96C119.345 24.7627 119.116 24.664 118.844 24.664C118.572 24.664 118.34 24.7627 118.148 24.96C117.961 25.152 117.868 25.4187 117.868 25.76C117.868 26.1013 117.961 26.3733 118.148 26.576C118.34 26.7733 118.572 26.872 118.844 26.872C119.116 26.872 119.345 26.7733 119.532 26.576C119.724 26.3787 119.82 26.1093 119.82 25.768ZM123.873 23.472C124.188 23.472 124.463 23.536 124.697 23.664C124.937 23.792 125.121 23.96 125.249 24.168V23.536H126.617V27.992C126.617 28.4027 126.535 28.7733 126.369 29.104C126.209 29.44 125.961 29.7067 125.625 29.904C125.295 30.1013 124.881 30.2 124.385 30.2C123.724 30.2 123.188 30.0427 122.777 29.728C122.367 29.4187 122.132 28.9973 122.073 28.464H123.425C123.468 28.6347 123.569 28.768 123.729 28.864C123.889 28.9653 124.087 29.016 124.321 29.016C124.604 29.016 124.828 28.9333 124.993 28.768C125.164 28.608 125.249 28.3493 125.249 27.992V27.36C125.116 27.568 124.932 27.7387 124.697 27.872C124.463 28 124.188 28.064 123.873 28.064C123.505 28.064 123.172 27.9707 122.873 27.784C122.575 27.592 122.337 27.3227 122.161 26.976C121.991 26.624 121.905 26.2187 121.905 25.76C121.905 25.3013 121.991 24.8987 122.161 24.552C122.337 24.2053 122.575 23.9387 122.873 23.752C123.172 23.5653 123.505 23.472 123.873 23.472ZM125.249 25.768C125.249 25.4267 125.153 25.1573 124.961 24.96C124.775 24.7627 124.545 24.664 124.273 24.664C124.001 24.664 123.769 24.7627 123.577 24.96C123.391 25.152 123.297 25.4187 123.297 25.76C123.297 26.1013 123.391 26.3733 123.577 26.576C123.769 26.7733 124.001 26.872 124.273 26.872C124.545 26.872 124.775 26.7733 124.961 26.576C125.153 26.3787 125.249 26.1093 125.249 25.768ZM127.335 25.76C127.335 25.3013 127.42 24.8987 127.591 24.552C127.767 24.2053 128.004 23.9387 128.303 23.752C128.602 23.5653 128.935 23.472 129.303 23.472C129.618 23.472 129.892 23.536 130.127 23.664C130.367 23.792 130.551 23.96 130.679 24.168V23.536H132.047V28H130.679V27.368C130.546 27.576 130.359 27.744 130.119 27.872C129.884 28 129.61 28.064 129.295 28.064C128.932 28.064 128.602 27.9707 128.303 27.784C128.004 27.592 127.767 27.3227 127.591 26.976C127.42 26.624 127.335 26.2187 127.335 25.76ZM130.679 25.768C130.679 25.4267 130.583 25.1573 130.391 24.96C130.204 24.7627 129.975 24.664 129.703 24.664C129.431 24.664 129.199 24.7627 129.007 24.96C128.82 25.152 128.727 25.4187 128.727 25.76C128.727 26.1013 128.82 26.3733 129.007 26.576C129.199 26.7733 129.431 26.872 129.703 26.872C129.975 26.872 130.204 26.7733 130.391 26.576C130.583 26.3787 130.679 26.1093 130.679 25.768ZM135.781 23.488C136.293 23.488 136.703 23.6587 137.013 24C137.322 24.336 137.477 24.8 137.477 25.392V28H136.117V25.576C136.117 25.2773 136.039 25.0453 135.885 24.88C135.73 24.7147 135.522 24.632 135.261 24.632C134.999 24.632 134.791 24.7147 134.637 24.88C134.482 25.0453 134.405 25.2773 134.405 25.576V28H133.037V22.08H134.405V24.136C134.543 23.9387 134.733 23.7813 134.973 23.664C135.213 23.5467 135.482 23.488 135.781 23.488ZM143.523 25.12C143.848 25.1893 144.109 25.352 144.307 25.608C144.504 25.8587 144.603 26.1467 144.603 26.472C144.603 26.9413 144.437 27.3147 144.107 27.592C143.781 27.864 143.325 28 142.739 28H140.123V22.384H142.651C143.221 22.384 143.667 22.5147 143.987 22.776C144.312 23.0373 144.475 23.392 144.475 23.84C144.475 24.1707 144.387 24.4453 144.211 24.664C144.04 24.8827 143.811 25.0347 143.523 25.12ZM141.491 24.656H142.387C142.611 24.656 142.781 24.608 142.899 24.512C143.021 24.4107 143.083 24.264 143.083 24.072C143.083 23.88 143.021 23.7333 142.899 23.632C142.781 23.5307 142.611 23.48 142.387 23.48H141.491V24.656ZM142.499 26.896C142.728 26.896 142.904 26.8453 143.027 26.744C143.155 26.6373 143.219 26.4853 143.219 26.288C143.219 26.0907 143.152 25.936 143.019 25.824C142.891 25.712 142.712 25.656 142.483 25.656H141.491V26.896H142.499ZM149.604 25.696C149.604 25.824 149.596 25.9573 149.58 26.096H146.484C146.506 26.3733 146.594 26.5867 146.748 26.736C146.908 26.88 147.103 26.952 147.332 26.952C147.674 26.952 147.911 26.808 148.044 26.52H149.5C149.426 26.8133 149.29 27.0773 149.092 27.312C148.9 27.5467 148.658 27.7307 148.364 27.864C148.071 27.9973 147.743 28.064 147.38 28.064C146.943 28.064 146.554 27.9707 146.212 27.784C145.871 27.5973 145.604 27.3307 145.412 26.984C145.22 26.6373 145.124 26.232 145.124 25.768C145.124 25.304 145.218 24.8987 145.404 24.552C145.596 24.2053 145.863 23.9387 146.204 23.752C146.546 23.5653 146.938 23.472 147.38 23.472C147.812 23.472 148.196 23.5627 148.532 23.744C148.868 23.9253 149.13 24.184 149.316 24.52C149.508 24.856 149.604 25.248 149.604 25.696ZM148.204 25.336C148.204 25.1013 148.124 24.9147 147.964 24.776C147.804 24.6373 147.604 24.568 147.364 24.568C147.135 24.568 146.94 24.6347 146.78 24.768C146.626 24.9013 146.53 25.0907 146.492 25.336H148.204ZM151.694 24.28C151.854 24.0347 152.054 23.8427 152.294 23.704C152.534 23.56 152.801 23.488 153.094 23.488V24.936H152.718C152.377 24.936 152.121 25.0107 151.95 25.16C151.779 25.304 151.694 25.56 151.694 25.928V28H150.326V23.536H151.694V24.28ZM156.476 28L155.116 26.128V28H153.748V22.08H155.116V25.352L156.468 23.536H158.156L156.3 25.776L158.172 28H156.476ZM158.421 25.76C158.421 25.3013 158.506 24.8987 158.677 24.552C158.853 24.2053 159.09 23.9387 159.389 23.752C159.688 23.5653 160.021 23.472 160.389 23.472C160.704 23.472 160.978 23.536 161.213 23.664C161.453 23.792 161.637 23.96 161.765 24.168V23.536H163.133V28H161.765V27.368C161.632 27.576 161.445 27.744 161.205 27.872C160.97 28 160.696 28.064 160.381 28.064C160.018 28.064 159.688 27.9707 159.389 27.784C159.09 27.592 158.853 27.3227 158.677 26.976C158.506 26.624 158.421 26.2187 158.421 25.76ZM161.765 25.768C161.765 25.4267 161.669 25.1573 161.477 24.96C161.29 24.7627 161.061 24.664 160.789 24.664C160.517 24.664 160.285 24.7627 160.093 24.96C159.906 25.152 159.813 25.4187 159.813 25.76C159.813 26.1013 159.906 26.3733 160.093 26.576C160.285 26.7733 160.517 26.872 160.789 26.872C161.061 26.872 161.29 26.7733 161.477 26.576C161.669 26.3787 161.765 26.1093 161.765 25.768ZM165.939 28.064C165.549 28.064 165.203 27.9973 164.899 27.864C164.595 27.7307 164.355 27.5493 164.179 27.32C164.003 27.0853 163.904 26.824 163.883 26.536H165.235C165.251 26.6907 165.323 26.816 165.451 26.912C165.579 27.008 165.736 27.056 165.923 27.056C166.093 27.056 166.224 27.024 166.315 26.96C166.411 26.8907 166.459 26.8027 166.459 26.696C166.459 26.568 166.392 26.4747 166.259 26.416C166.125 26.352 165.909 26.2827 165.611 26.208C165.291 26.1333 165.024 26.056 164.811 25.976C164.597 25.8907 164.413 25.76 164.259 25.584C164.104 25.4027 164.027 25.16 164.027 24.856C164.027 24.6 164.096 24.368 164.235 24.16C164.379 23.9467 164.587 23.7787 164.859 23.656C165.136 23.5333 165.464 23.472 165.843 23.472C166.403 23.472 166.843 23.6107 167.163 23.888C167.488 24.1653 167.675 24.5333 167.723 24.992H166.459C166.437 24.8373 166.368 24.7147 166.251 24.624C166.139 24.5333 165.989 24.488 165.803 24.488C165.643 24.488 165.52 24.52 165.435 24.584C165.349 24.6427 165.307 24.7253 165.307 24.832C165.307 24.96 165.373 25.056 165.507 25.12C165.645 25.184 165.859 25.248 166.147 25.312C166.477 25.3973 166.747 25.4827 166.955 25.568C167.163 25.648 167.344 25.7813 167.499 25.968C167.659 26.1493 167.741 26.3947 167.747 26.704C167.747 26.9653 167.672 27.2 167.523 27.408C167.379 27.6107 167.168 27.7707 166.891 27.888C166.619 28.0053 166.301 28.064 165.939 28.064Z" fill="#323232"/>
<path d="M260.253 9C260.253 13.711 256.57 17.5 252.062 17.5C247.554 17.5 243.87 13.711 243.87 9C243.87 4.28901 247.554 0.5 252.062 0.5C256.57 0.5 260.253 4.28901 260.253 9Z" fill="#FCFBFE" stroke="#C2CFD7"/>
<path d="M249.674 7.76C249.701 7.04667 249.934 6.49667 250.374 6.11C250.814 5.72333 251.411 5.53 252.164 5.53C252.664 5.53 253.091 5.61667 253.444 5.79C253.804 5.96333 254.074 6.2 254.254 6.5C254.441 6.8 254.534 7.13667 254.534 7.51C254.534 7.95 254.424 8.31 254.204 8.59C253.984 8.86333 253.728 9.05 253.434 9.15V9.19C253.814 9.31667 254.114 9.52667 254.334 9.82C254.554 10.1133 254.664 10.49 254.664 10.95C254.664 11.3633 254.568 11.73 254.374 12.05C254.188 12.3633 253.911 12.61 253.544 12.79C253.184 12.97 252.754 13.06 252.254 13.06C251.454 13.06 250.814 12.8633 250.334 12.47C249.861 12.0767 249.611 11.4833 249.584 10.69H251.244C251.251 10.9833 251.334 11.2167 251.494 11.39C251.654 11.5567 251.888 11.64 252.194 11.64C252.454 11.64 252.654 11.5667 252.794 11.42C252.941 11.2667 253.014 11.0667 253.014 10.82C253.014 10.5 252.911 10.27 252.704 10.13C252.504 9.98333 252.181 9.91 251.734 9.91H251.414V8.52H251.734C252.074 8.52 252.348 8.46333 252.554 8.35C252.768 8.23 252.874 8.02 252.874 7.72C252.874 7.48 252.808 7.29333 252.674 7.16C252.541 7.02667 252.358 6.96 252.124 6.96C251.871 6.96 251.681 7.03667 251.554 7.19C251.434 7.34333 251.364 7.53333 251.344 7.76H249.674Z" fill="#C2CFD7"/>
<path d="M235.071 22.192C235.071 22.5173 234.997 22.816 234.847 23.088C234.698 23.3547 234.469 23.5707 234.159 23.736C233.85 23.9013 233.466 23.984 233.007 23.984H232.159V26H230.791V20.384H233.007C233.455 20.384 233.834 20.4613 234.143 20.616C234.453 20.7707 234.685 20.984 234.839 21.256C234.994 21.528 235.071 21.84 235.071 22.192ZM232.903 22.896C233.165 22.896 233.359 22.8347 233.487 22.712C233.615 22.5893 233.679 22.416 233.679 22.192C233.679 21.968 233.615 21.7947 233.487 21.672C233.359 21.5493 233.165 21.488 232.903 21.488H232.159V22.896H232.903ZM239.992 23.696C239.992 23.824 239.984 23.9573 239.968 24.096H236.872C236.893 24.3733 236.981 24.5867 237.136 24.736C237.296 24.88 237.49 24.952 237.72 24.952C238.061 24.952 238.298 24.808 238.432 24.52H239.888C239.813 24.8133 239.677 25.0773 239.48 25.312C239.288 25.5467 239.045 25.7307 238.752 25.864C238.458 25.9973 238.13 26.064 237.768 26.064C237.33 26.064 236.941 25.9707 236.6 25.784C236.258 25.5973 235.992 25.3307 235.8 24.984C235.608 24.6373 235.512 24.232 235.512 23.768C235.512 23.304 235.605 22.8987 235.792 22.552C235.984 22.2053 236.25 21.9387 236.592 21.752C236.933 21.5653 237.325 21.472 237.768 21.472C238.2 21.472 238.584 21.5627 238.92 21.744C239.256 21.9253 239.517 22.184 239.704 22.52C239.896 22.856 239.992 23.248 239.992 23.696ZM238.592 23.336C238.592 23.1013 238.512 22.9147 238.352 22.776C238.192 22.6373 237.992 22.568 237.752 22.568C237.522 22.568 237.328 22.6347 237.168 22.768C237.013 22.9013 236.917 23.0907 236.88 23.336H238.592ZM243.433 21.488C243.956 21.488 244.372 21.6587 244.681 22C244.996 22.336 245.153 22.8 245.153 23.392V26H243.793V23.576C243.793 23.2773 243.716 23.0453 243.561 22.88C243.407 22.7147 243.199 22.632 242.937 22.632C242.676 22.632 242.468 22.7147 242.313 22.88C242.159 23.0453 242.081 23.2773 242.081 23.576V26H240.713V21.536H242.081V22.128C242.22 21.9307 242.407 21.776 242.641 21.664C242.876 21.5467 243.14 21.488 243.433 21.488ZM247.8 21.472C248.115 21.472 248.389 21.536 248.624 21.664C248.864 21.792 249.048 21.96 249.176 22.168V21.536H250.544V25.992C250.544 26.4027 250.461 26.7733 250.296 27.104C250.136 27.44 249.888 27.7067 249.552 27.904C249.221 28.1013 248.808 28.2 248.312 28.2C247.651 28.2 247.115 28.0427 246.704 27.728C246.293 27.4187 246.059 26.9973 246 26.464H247.352C247.395 26.6347 247.496 26.768 247.656 26.864C247.816 26.9653 248.013 27.016 248.248 27.016C248.531 27.016 248.755 26.9333 248.92 26.768C249.091 26.608 249.176 26.3493 249.176 25.992V25.36C249.043 25.568 248.859 25.7387 248.624 25.872C248.389 26 248.115 26.064 247.8 26.064C247.432 26.064 247.099 25.9707 246.8 25.784C246.501 25.592 246.264 25.3227 246.088 24.976C245.917 24.624 245.832 24.2187 245.832 23.76C245.832 23.3013 245.917 22.8987 246.088 22.552C246.264 22.2053 246.501 21.9387 246.8 21.752C247.099 21.5653 247.432 21.472 247.8 21.472ZM249.176 23.768C249.176 23.4267 249.08 23.1573 248.888 22.96C248.701 22.7627 248.472 22.664 248.2 22.664C247.928 22.664 247.696 22.7627 247.504 22.96C247.317 23.152 247.224 23.4187 247.224 23.76C247.224 24.1013 247.317 24.3733 247.504 24.576C247.696 24.7733 247.928 24.872 248.2 24.872C248.472 24.872 248.701 24.7733 248.888 24.576C249.08 24.3787 249.176 24.1093 249.176 23.768ZM251.262 23.76C251.262 23.3013 251.347 22.8987 251.518 22.552C251.694 22.2053 251.931 21.9387 252.23 21.752C252.528 21.5653 252.862 21.472 253.23 21.472C253.544 21.472 253.819 21.536 254.054 21.664C254.294 21.792 254.478 21.96 254.606 22.168V21.536H255.974V26H254.606V25.368C254.472 25.576 254.286 25.744 254.046 25.872C253.811 26 253.536 26.064 253.222 26.064C252.859 26.064 252.528 25.9707 252.23 25.784C251.931 25.592 251.694 25.3227 251.518 24.976C251.347 24.624 251.262 24.2187 251.262 23.76ZM254.606 23.768C254.606 23.4267 254.51 23.1573 254.318 22.96C254.131 22.7627 253.902 22.664 253.63 22.664C253.358 22.664 253.126 22.7627 252.934 22.96C252.747 23.152 252.654 23.4187 252.654 23.76C252.654 24.1013 252.747 24.3733 252.934 24.576C253.126 24.7733 253.358 24.872 253.63 24.872C253.902 24.872 254.131 24.7733 254.318 24.576C254.51 24.3787 254.606 24.1093 254.606 23.768ZM257.643 21.072C257.403 21.072 257.206 21.0027 257.051 20.864C256.902 20.72 256.827 20.544 256.827 20.336C256.827 20.1227 256.902 19.9467 257.051 19.808C257.206 19.664 257.403 19.592 257.643 19.592C257.878 19.592 258.07 19.664 258.219 19.808C258.374 19.9467 258.451 20.1227 258.451 20.336C258.451 20.544 258.374 20.72 258.219 20.864C258.07 21.0027 257.878 21.072 257.643 21.072ZM258.331 26.576C258.331 27.1253 258.193 27.52 257.915 27.76C257.638 28.0053 257.251 28.128 256.755 28.128H256.219V26.968H256.547C256.697 26.968 256.803 26.9387 256.867 26.88C256.931 26.8213 256.963 26.7253 256.963 26.592V21.536H258.331V26.576ZM263.723 21.536V26H262.355V25.392C262.216 25.5893 262.027 25.7493 261.787 25.872C261.552 25.9893 261.291 26.048 261.003 26.048C260.662 26.048 260.36 25.9733 260.099 25.824C259.838 25.6693 259.635 25.448 259.491 25.16C259.347 24.872 259.275 24.5333 259.275 24.144V21.536H260.635V23.96C260.635 24.2587 260.712 24.4907 260.867 24.656C261.022 24.8213 261.23 24.904 261.491 24.904C261.758 24.904 261.968 24.8213 262.123 24.656C262.278 24.4907 262.355 24.2587 262.355 23.96V21.536H263.723ZM264.434 23.76C264.434 23.3013 264.519 22.8987 264.69 22.552C264.866 22.2053 265.103 21.9387 265.402 21.752C265.7 21.5653 266.034 21.472 266.402 21.472C266.716 21.472 266.991 21.536 267.226 21.664C267.466 21.792 267.65 21.96 267.778 22.168V21.536H269.146V26H267.778V25.368C267.644 25.576 267.458 25.744 267.218 25.872C266.983 26 266.708 26.064 266.394 26.064C266.031 26.064 265.7 25.9707 265.402 25.784C265.103 25.592 264.866 25.3227 264.69 24.976C264.519 24.624 264.434 24.2187 264.434 23.76ZM267.778 23.768C267.778 23.4267 267.682 23.1573 267.49 22.96C267.303 22.7627 267.074 22.664 266.802 22.664C266.53 22.664 266.298 22.7627 266.106 22.96C265.919 23.152 265.826 23.4187 265.826 23.76C265.826 24.1013 265.919 24.3733 266.106 24.576C266.298 24.7733 266.53 24.872 266.802 24.872C267.074 24.872 267.303 24.7733 267.49 24.576C267.682 24.3787 267.778 24.1093 267.778 23.768ZM272.855 21.488C273.378 21.488 273.794 21.6587 274.103 22C274.418 22.336 274.575 22.8 274.575 23.392V26H273.215V23.576C273.215 23.2773 273.138 23.0453 272.983 22.88C272.829 22.7147 272.621 22.632 272.359 22.632C272.098 22.632 271.89 22.7147 271.735 22.88C271.581 23.0453 271.503 23.2773 271.503 23.576V26H270.135V21.536H271.503V22.128C271.642 21.9307 271.829 21.776 272.063 21.664C272.298 21.5467 272.562 21.488 272.855 21.488ZM245.633 35.12C245.958 35.1893 246.22 35.352 246.417 35.608C246.614 35.8587 246.713 36.1467 246.713 36.472C246.713 36.9413 246.548 37.3147 246.217 37.592C245.892 37.864 245.436 38 244.849 38H242.233V32.384H244.761C245.332 32.384 245.777 32.5147 246.097 32.776C246.422 33.0373 246.585 33.392 246.585 33.84C246.585 34.1707 246.497 34.4453 246.321 34.664C246.15 34.8827 245.921 35.0347 245.633 35.12ZM243.601 34.656H244.497C244.721 34.656 244.892 34.608 245.009 34.512C245.132 34.4107 245.193 34.264 245.193 34.072C245.193 33.88 245.132 33.7333 245.009 33.632C244.892 33.5307 244.721 33.48 244.497 33.48H243.601V34.656ZM244.609 36.896C244.838 36.896 245.014 36.8453 245.137 36.744C245.265 36.6373 245.329 36.4853 245.329 36.288C245.329 36.0907 245.262 35.936 245.129 35.824C245.001 35.712 244.822 35.656 244.593 35.656H243.601V36.896H244.609ZM248.194 33.072C247.954 33.072 247.757 33.0027 247.602 32.864C247.453 32.72 247.378 32.544 247.378 32.336C247.378 32.1227 247.453 31.9467 247.602 31.808C247.757 31.664 247.954 31.592 248.194 31.592C248.429 31.592 248.621 31.664 248.77 31.808C248.925 31.9467 249.002 32.1227 249.002 32.336C249.002 32.544 248.925 32.72 248.77 32.864C248.621 33.0027 248.429 33.072 248.194 33.072ZM248.874 33.536V38H247.506V33.536H248.874ZM249.594 35.76C249.594 35.3013 249.679 34.8987 249.85 34.552C250.026 34.2053 250.263 33.9387 250.562 33.752C250.86 33.5653 251.194 33.472 251.562 33.472C251.876 33.472 252.151 33.536 252.386 33.664C252.626 33.792 252.81 33.96 252.938 34.168V33.536H254.306V38H252.938V37.368C252.804 37.576 252.618 37.744 252.378 37.872C252.143 38 251.868 38.064 251.554 38.064C251.191 38.064 250.86 37.9707 250.562 37.784C250.263 37.592 250.026 37.3227 249.85 36.976C249.679 36.624 249.594 36.2187 249.594 35.76ZM252.938 35.768C252.938 35.4267 252.842 35.1573 252.65 34.96C252.463 34.7627 252.234 34.664 251.962 34.664C251.69 34.664 251.458 34.7627 251.266 34.96C251.079 35.152 250.986 35.4187 250.986 35.76C250.986 36.1013 251.079 36.3733 251.266 36.576C251.458 36.7733 251.69 36.872 251.962 36.872C252.234 36.872 252.463 36.7733 252.65 36.576C252.842 36.3787 252.938 36.1093 252.938 35.768ZM259.855 33.536L257.055 40.12H255.583L256.607 37.848L254.791 33.536H256.319L257.351 36.328L258.375 33.536H259.855ZM260.078 35.76C260.078 35.3013 260.163 34.8987 260.334 34.552C260.51 34.2053 260.747 33.9387 261.046 33.752C261.345 33.5653 261.678 33.472 262.046 33.472C262.361 33.472 262.635 33.536 262.87 33.664C263.11 33.792 263.294 33.96 263.422 34.168V33.536H264.79V38H263.422V37.368C263.289 37.576 263.102 37.744 262.862 37.872C262.627 38 262.353 38.064 262.038 38.064C261.675 38.064 261.345 37.9707 261.046 37.784C260.747 37.592 260.51 37.3227 260.334 36.976C260.163 36.624 260.078 36.2187 260.078 35.76ZM263.422 35.768C263.422 35.4267 263.326 35.1573 263.134 34.96C262.947 34.7627 262.718 34.664 262.446 34.664C262.174 34.664 261.942 34.7627 261.75 34.96C261.563 35.152 261.47 35.4187 261.47 35.76C261.47 36.1013 261.563 36.3733 261.75 36.576C261.942 36.7733 262.174 36.872 262.446 36.872C262.718 36.872 262.947 36.7733 263.134 36.576C263.326 36.3787 263.422 36.1093 263.422 35.768Z" fill="#323232"/>
</svg>
