<svg width="79" height="34" viewBox="0 0 79 34" fill="none" xmlns="http://www.w3.org/2000/svg">
<circle cx="38" cy="9" r="8.5" fill="#FCFBFE" stroke="#0267B2"/>
<path d="M35.39 10.63C35.6167 10.45 35.72 10.3667 35.7 10.38C36.3533 9.84 36.8667 9.39667 37.24 9.05C37.62 8.70333 37.94 8.34 38.2 7.96C38.46 7.58 38.59 7.21 38.59 6.85C38.59 6.57667 38.5267 6.36333 38.4 6.21C38.2733 6.05667 38.0833 5.98 37.83 5.98C37.5767 5.98 37.3767 6.07667 37.23 6.27C37.09 6.45667 37.02 6.72333 37.02 7.07H35.37C35.3833 6.50333 35.5033 6.03 35.73 5.65C35.9633 5.27 36.2667 4.99 36.64 4.81C37.02 4.63 37.44 4.54 37.9 4.54C38.6933 4.54 39.29 4.74333 39.69 5.15C40.0967 5.55667 40.3 6.08667 40.3 6.74C40.3 7.45333 40.0567 8.11667 39.57 8.73C39.0833 9.33667 38.4633 9.93 37.71 10.51H40.41V11.9H35.39V10.63Z" fill="#0267B2"/>
<path d="M2.3 22.98V27.18C2.3 27.6 2.40333 27.9233 2.61 28.15C2.81667 28.3767 3.12 28.49 3.52 28.49C3.92 28.49 4.22667 28.3767 4.44 28.15C4.65333 27.9233 4.76 27.6 4.76 27.18V22.98H6.47V27.17C6.47 27.7967 6.33667 28.3267 6.07 28.76C5.80333 29.1933 5.44333 29.52 4.99 29.74C4.54333 29.96 4.04333 30.07 3.49 30.07C2.93667 30.07 2.44 29.9633 2 29.75C1.56667 29.53 1.22333 29.2033 0.97 28.77C0.716667 28.33 0.59 27.7967 0.59 27.17V22.98H2.3ZM11.0708 24.36C11.7241 24.36 12.2441 24.5733 12.6308 25C13.0241 25.42 13.2208 26 13.2208 26.74V30H11.5208V26.97C11.5208 26.5967 11.4241 26.3067 11.2308 26.1C11.0374 25.8933 10.7774 25.79 10.4508 25.79C10.1241 25.79 9.86411 25.8933 9.67078 26.1C9.47745 26.3067 9.38078 26.5967 9.38078 26.97V30H7.67078V24.42H9.38078V25.16C9.55411 24.9133 9.78745 24.72 10.0808 24.58C10.3741 24.4333 10.7041 24.36 11.0708 24.36ZM16.5291 24.34C16.9224 24.34 17.2657 24.42 17.5591 24.58C17.8591 24.74 18.0891 24.95 18.2491 25.21V24.42H19.9591V29.99C19.9591 30.5033 19.8557 30.9667 19.6491 31.38C19.4491 31.8 19.1391 32.1333 18.7191 32.38C18.3057 32.6267 17.7891 32.75 17.1691 32.75C16.3424 32.75 15.6724 32.5533 15.1591 32.16C14.6457 31.7733 14.3524 31.2467 14.2791 30.58H15.9691C16.0224 30.7933 16.1491 30.96 16.3491 31.08C16.5491 31.2067 16.7957 31.27 17.0891 31.27C17.4424 31.27 17.7224 31.1667 17.9291 30.96C18.1424 30.76 18.2491 30.4367 18.2491 29.99V29.2C18.0824 29.46 17.8524 29.6733 17.5591 29.84C17.2657 30 16.9224 30.08 16.5291 30.08C16.0691 30.08 15.6524 29.9633 15.2791 29.73C14.9057 29.49 14.6091 29.1533 14.3891 28.72C14.1757 28.28 14.0691 27.7733 14.0691 27.2C14.0691 26.6267 14.1757 26.1233 14.3891 25.69C14.6091 25.2567 14.9057 24.9233 15.2791 24.69C15.6524 24.4567 16.0691 24.34 16.5291 24.34ZM18.2491 27.21C18.2491 26.7833 18.1291 26.4467 17.8891 26.2C17.6557 25.9533 17.3691 25.83 17.0291 25.83C16.6891 25.83 16.3991 25.9533 16.1591 26.2C15.9257 26.44 15.8091 26.7733 15.8091 27.2C15.8091 27.6267 15.9257 27.9667 16.1591 28.22C16.3991 28.4667 16.6891 28.59 17.0291 28.59C17.3691 28.59 17.6557 28.4667 17.8891 28.22C18.1291 27.9733 18.2491 27.6367 18.2491 27.21ZM23.3162 24.34C23.7095 24.34 24.0528 24.42 24.3462 24.58C24.6462 24.74 24.8762 24.95 25.0362 25.21V24.42H26.7462V29.99C26.7462 30.5033 26.6428 30.9667 26.4362 31.38C26.2362 31.8 25.9262 32.1333 25.5062 32.38C25.0928 32.6267 24.5762 32.75 23.9562 32.75C23.1295 32.75 22.4595 32.5533 21.9462 32.16C21.4328 31.7733 21.1395 31.2467 21.0662 30.58H22.7562C22.8095 30.7933 22.9362 30.96 23.1362 31.08C23.3362 31.2067 23.5828 31.27 23.8762 31.27C24.2295 31.27 24.5095 31.1667 24.7162 30.96C24.9295 30.76 25.0362 30.4367 25.0362 29.99V29.2C24.8695 29.46 24.6395 29.6733 24.3462 29.84C24.0528 30 23.7095 30.08 23.3162 30.08C22.8562 30.08 22.4395 29.9633 22.0662 29.73C21.6928 29.49 21.3962 29.1533 21.1762 28.72C20.9628 28.28 20.8562 27.7733 20.8562 27.2C20.8562 26.6267 20.9628 26.1233 21.1762 25.69C21.3962 25.2567 21.6928 24.9233 22.0662 24.69C22.4395 24.4567 22.8562 24.34 23.3162 24.34ZM25.0362 27.21C25.0362 26.7833 24.9162 26.4467 24.6762 26.2C24.4428 25.9533 24.1562 25.83 23.8162 25.83C23.4762 25.83 23.1862 25.9533 22.9462 26.2C22.7128 26.44 22.5962 26.7733 22.5962 27.2C22.5962 27.6267 22.7128 27.9667 22.9462 28.22C23.1862 28.4667 23.4762 28.59 23.8162 28.59C24.1562 28.59 24.4428 28.4667 24.6762 28.22C24.9162 27.9733 25.0362 27.6367 25.0362 27.21ZM27.6433 27.2C27.6433 26.6267 27.7499 26.1233 27.9633 25.69C28.1833 25.2567 28.4799 24.9233 28.8533 24.69C29.2266 24.4567 29.6433 24.34 30.1033 24.34C30.4966 24.34 30.8399 24.42 31.1333 24.58C31.4333 24.74 31.6633 24.95 31.8233 25.21V24.42H33.5333V30H31.8233V29.21C31.6566 29.47 31.4233 29.68 31.1233 29.84C30.8299 30 30.4866 30.08 30.0933 30.08C29.6399 30.08 29.2266 29.9633 28.8533 29.73C28.4799 29.49 28.1833 29.1533 27.9633 28.72C27.7499 28.28 27.6433 27.7733 27.6433 27.2ZM31.8233 27.21C31.8233 26.7833 31.7033 26.4467 31.4633 26.2C31.2299 25.9533 30.9433 25.83 30.6033 25.83C30.2633 25.83 29.9733 25.9533 29.7333 26.2C29.4999 26.44 29.3833 26.7733 29.3833 27.2C29.3833 27.6267 29.4999 27.9667 29.7333 28.22C29.9733 28.4667 30.2633 28.59 30.6033 28.59C30.9433 28.59 31.2299 28.4667 31.4633 28.22C31.7033 27.9733 31.8233 27.6367 31.8233 27.21ZM38.2004 24.36C38.8404 24.36 39.3537 24.5733 39.7404 25C40.1271 25.42 40.3204 26 40.3204 26.74V30H38.6204V26.97C38.6204 26.5967 38.5237 26.3067 38.3304 26.1C38.1371 25.8933 37.8771 25.79 37.5504 25.79C37.2237 25.79 36.9637 25.8933 36.7704 26.1C36.5771 26.3067 36.4804 26.5967 36.4804 26.97V30H34.7704V22.6H36.4804V25.17C36.6537 24.9233 36.8904 24.7267 37.1904 24.58C37.4904 24.4333 37.8271 24.36 38.2004 24.36ZM47.8778 26.4C48.2845 26.4867 48.6111 26.69 48.8578 27.01C49.1045 27.3233 49.2278 27.6833 49.2278 28.09C49.2278 28.6767 49.0211 29.1433 48.6078 29.49C48.2011 29.83 47.6311 30 46.8978 30H43.6278V22.98H46.7878C47.5011 22.98 48.0578 23.1433 48.4578 23.47C48.8645 23.7967 49.0678 24.24 49.0678 24.8C49.0678 25.2133 48.9578 25.5567 48.7378 25.83C48.5245 26.1033 48.2378 26.2933 47.8778 26.4ZM45.3378 25.82H46.4578C46.7378 25.82 46.9511 25.76 47.0978 25.64C47.2511 25.5133 47.3278 25.33 47.3278 25.09C47.3278 24.85 47.2511 24.6667 47.0978 24.54C46.9511 24.4133 46.7378 24.35 46.4578 24.35H45.3378V25.82ZM46.5978 28.62C46.8845 28.62 47.1045 28.5567 47.2578 28.43C47.4178 28.2967 47.4978 28.1067 47.4978 27.86C47.4978 27.6133 47.4145 27.42 47.2478 27.28C47.0878 27.14 46.8645 27.07 46.5778 27.07H45.3378V28.62H46.5978ZM55.4796 27.12C55.4796 27.28 55.4696 27.4467 55.4496 27.62H51.5796C51.6063 27.9667 51.7163 28.2333 51.9096 28.42C52.1096 28.6 52.3529 28.69 52.6396 28.69C53.0663 28.69 53.3629 28.51 53.5296 28.15H55.3496C55.2563 28.5167 55.0863 28.8467 54.8396 29.14C54.5996 29.4333 54.2963 29.6633 53.9296 29.83C53.5629 29.9967 53.1529 30.08 52.6996 30.08C52.1529 30.08 51.6663 29.9633 51.2396 29.73C50.8129 29.4967 50.4796 29.1633 50.2396 28.73C49.9996 28.2967 49.8796 27.79 49.8796 27.21C49.8796 26.63 49.9963 26.1233 50.2296 25.69C50.4696 25.2567 50.8029 24.9233 51.2296 24.69C51.6563 24.4567 52.1463 24.34 52.6996 24.34C53.2396 24.34 53.7196 24.4533 54.1396 24.68C54.5596 24.9067 54.8863 25.23 55.1196 25.65C55.3596 26.07 55.4796 26.56 55.4796 27.12ZM53.7296 26.67C53.7296 26.3767 53.6296 26.1433 53.4296 25.97C53.2296 25.7967 52.9796 25.71 52.6796 25.71C52.3929 25.71 52.1496 25.7933 51.9496 25.96C51.7563 26.1267 51.6363 26.3633 51.5896 26.67H53.7296ZM58.0917 25.35C58.2917 25.0433 58.5417 24.8033 58.8417 24.63C59.1417 24.45 59.4751 24.36 59.8417 24.36V26.17H59.3717C58.9451 26.17 58.6251 26.2633 58.4117 26.45C58.1984 26.63 58.0917 26.95 58.0917 27.41V30H56.3817V24.42H58.0917V25.35ZM64.0691 30L62.3691 27.66V30H60.6591V22.6H62.3691V26.69L64.0591 24.42H66.1691L63.8491 27.22L66.1891 30H64.0691ZM66.5007 27.2C66.5007 26.6267 66.6074 26.1233 66.8207 25.69C67.0407 25.2567 67.3374 24.9233 67.7107 24.69C68.084 24.4567 68.5007 24.34 68.9607 24.34C69.354 24.34 69.6974 24.42 69.9907 24.58C70.2907 24.74 70.5207 24.95 70.6807 25.21V24.42H72.3907V30H70.6807V29.21C70.514 29.47 70.2807 29.68 69.9807 29.84C69.6874 30 69.344 30.08 68.9507 30.08C68.4974 30.08 68.084 29.9633 67.7107 29.73C67.3374 29.49 67.0407 29.1533 66.8207 28.72C66.6074 28.28 66.5007 27.7733 66.5007 27.2ZM70.6807 27.21C70.6807 26.7833 70.5607 26.4467 70.3207 26.2C70.0874 25.9533 69.8007 25.83 69.4607 25.83C69.1207 25.83 68.8307 25.9533 68.5907 26.2C68.3574 26.44 68.2407 26.7733 68.2407 27.2C68.2407 27.6267 68.3574 27.9667 68.5907 28.22C68.8307 28.4667 69.1207 28.59 69.4607 28.59C69.8007 28.59 70.0874 28.4667 70.3207 28.22C70.5607 27.9733 70.6807 27.6367 70.6807 27.21ZM75.8978 30.08C75.4111 30.08 74.9778 29.9967 74.5978 29.83C74.2178 29.6633 73.9178 29.4367 73.6978 29.15C73.4778 28.8567 73.3545 28.53 73.3278 28.17H75.0178C75.0378 28.3633 75.1278 28.52 75.2878 28.64C75.4478 28.76 75.6445 28.82 75.8778 28.82C76.0911 28.82 76.2545 28.78 76.3678 28.7C76.4878 28.6133 76.5478 28.5033 76.5478 28.37C76.5478 28.21 76.4645 28.0933 76.2978 28.02C76.1311 27.94 75.8611 27.8533 75.4878 27.76C75.0878 27.6667 74.7545 27.57 74.4878 27.47C74.2211 27.3633 73.9911 27.2 73.7978 26.98C73.6045 26.7533 73.5078 26.45 73.5078 26.07C73.5078 25.75 73.5945 25.46 73.7678 25.2C73.9478 24.9333 74.2078 24.7233 74.5478 24.57C74.8945 24.4167 75.3045 24.34 75.7778 24.34C76.4778 24.34 77.0278 24.5133 77.4278 24.86C77.8345 25.2067 78.0678 25.6667 78.1278 26.24H76.5478C76.5211 26.0467 76.4345 25.8933 76.2878 25.78C76.1478 25.6667 75.9611 25.61 75.7278 25.61C75.5278 25.61 75.3745 25.65 75.2678 25.73C75.1611 25.8033 75.1078 25.9067 75.1078 26.04C75.1078 26.2 75.1911 26.32 75.3578 26.4C75.5311 26.48 75.7978 26.56 76.1578 26.64C76.5711 26.7467 76.9078 26.8533 77.1678 26.96C77.4278 27.06 77.6545 27.2267 77.8478 27.46C78.0478 27.6867 78.1511 27.9933 78.1578 28.38C78.1578 28.7067 78.0645 29 77.8778 29.26C77.6978 29.5133 77.4345 29.7133 77.0878 29.86C76.7478 30.0067 76.3511 30.08 75.8978 30.08Z" fill="#323232"/>
</svg>
